<svg width="212" height="164" viewBox="0 0 212 164" fill="none" xmlns="http://www.w3.org/2000/svg">
<path d="M69.3057 30.3625C71.0399 26.6524 73.2397 23.0704 76.0011 19.6923C97.7031 -6.85631 140.347 -4.61995 165.353 16.7808C193.085 40.5147 190.521 80.4595 189.954 87.2843C187.982 111.027 175.655 149.675 147.301 157.549C134.129 161.206 121.561 157.093 110.595 149.464C101.935 143.438 90.5168 144.001 82.2512 151.064C79.1247 153.736 75.6396 155.994 71.7677 157.594C63.0053 161.213 55.2047 160.243 51.8259 159.781C25.4876 156.174 -0.240487 126.187 0.00169642 98.1489C0.279912 65.9746 34.713 41.2962 69.3045 30.3625H69.3057Z" fill="white" fill-opacity="0.05"/>
<path d="M166.808 72.8137V136.07C166.808 136.146 166.804 136.223 166.801 136.304C166.801 136.341 166.797 136.377 166.794 136.414C166.794 136.447 166.79 136.484 166.787 136.52C166.787 136.535 166.783 136.55 166.783 136.564C166.78 136.589 166.776 136.612 166.772 136.634C166.768 136.689 166.757 136.744 166.75 136.798C166.743 136.85 166.732 136.905 166.721 136.956C166.717 136.982 166.709 137.008 166.702 137.033C166.702 137.051 166.699 137.073 166.691 137.091C166.688 137.117 166.68 137.143 166.673 137.168C166.662 137.216 166.647 137.263 166.636 137.308C166.636 137.315 166.633 137.326 166.628 137.333C166.603 137.414 166.581 137.494 166.552 137.571C166.552 137.575 166.552 137.579 166.548 137.582C166.533 137.622 166.519 137.663 166.504 137.7C166.49 137.736 166.475 137.77 166.464 137.803C166.461 137.814 166.453 137.824 166.453 137.832C166.409 137.931 166.365 138.034 166.314 138.129C166.299 138.158 166.281 138.195 166.262 138.228C166.244 138.261 166.226 138.29 166.207 138.323C166.189 138.353 166.174 138.385 166.152 138.415C166.116 138.477 166.076 138.539 166.035 138.598C166.009 138.638 165.983 138.671 165.962 138.708C165.9 138.788 165.84 138.869 165.775 138.946C165.727 139.004 165.68 139.059 165.632 139.11C165.584 139.165 165.533 139.217 165.482 139.268C165.46 139.294 165.434 139.316 165.409 139.341C165.387 139.363 165.365 139.385 165.339 139.403C165.314 139.429 165.284 139.455 165.255 139.48C165.247 139.487 165.236 139.495 165.229 139.502C165.159 139.564 165.086 139.623 165.012 139.678C165.005 139.682 164.998 139.689 164.99 139.696C164.932 139.737 164.873 139.781 164.811 139.821C164.789 139.836 164.771 139.851 164.752 139.861C164.719 139.883 164.686 139.905 164.654 139.924C164.628 139.942 164.602 139.957 164.573 139.972C164.543 139.99 164.514 140.008 164.485 140.023C164.28 140.141 164.064 140.239 163.84 140.32C163.825 140.323 163.814 140.331 163.8 140.334C163.785 140.338 163.767 140.346 163.752 140.349C163.7 140.367 163.649 140.386 163.594 140.4C163.503 140.43 163.411 140.452 163.319 140.474C163.272 140.485 163.224 140.496 163.176 140.507C163.147 140.514 163.114 140.518 163.085 140.522C163.048 140.529 163.008 140.536 162.972 140.543C162.964 140.543 162.96 140.543 162.957 140.547C162.927 140.551 162.898 140.554 162.865 140.558C162.85 140.558 162.836 140.562 162.821 140.562C162.796 140.565 162.767 140.569 162.741 140.572C162.726 140.572 162.712 140.576 162.693 140.576C162.638 140.579 162.58 140.584 162.524 140.587C162.444 140.591 162.363 140.594 162.283 140.594H50.5276C50.4473 140.594 50.3664 140.591 50.286 140.587C50.2311 140.584 50.1726 140.58 50.1177 140.576C50.0557 140.572 49.993 140.565 49.931 140.554C49.8944 140.551 49.8578 140.547 49.8247 140.539C49.7367 140.528 49.6487 140.51 49.5648 140.491C49.5388 140.488 49.5169 140.48 49.4915 140.473C49.4 140.451 49.3084 140.429 49.2169 140.4C49.1619 140.382 49.1106 140.367 49.0592 140.348C48.8134 140.264 48.5754 140.158 48.348 140.037C48.293 140.004 48.2381 139.971 48.1832 139.938C48.1211 139.901 48.0585 139.861 48.0001 139.82C47.6374 139.575 47.3149 139.282 47.036 138.944C46.9699 138.868 46.9079 138.787 46.8494 138.703C46.648 138.424 46.479 138.124 46.3473 137.801C46.3178 137.728 46.2888 137.647 46.2593 137.57C46.2298 137.494 46.2079 137.413 46.1825 137.332C46.1606 137.252 46.1388 137.171 46.1205 137.091C46.1022 137.014 46.0874 136.941 46.0726 136.863C46.0691 136.853 46.0691 136.838 46.0655 136.827C46.0543 136.754 46.0437 136.677 46.036 136.604C46.0325 136.6 46.0325 136.592 46.0325 136.585C46.0254 136.527 46.0212 136.472 46.0177 136.413C46.0065 136.3 46.0029 136.186 46.0029 136.069V72.8131C46.0029 72.2709 46.098 71.7505 46.2741 71.2667C46.5529 70.5006 47.0325 69.8301 47.6521 69.321C47.6598 69.3139 47.6704 69.3062 47.6817 69.2991L47.9162 69.1195C48.6528 68.5956 49.5542 68.2878 50.5288 68.2878H162.284C162.394 68.2878 162.5 68.2914 162.606 68.3026C162.625 68.2991 162.647 68.3026 162.665 68.3062C162.768 68.3132 162.874 68.3245 162.973 68.3392C162.995 68.3428 163.021 68.3463 163.042 68.3505C163.13 68.3652 163.218 68.3835 163.302 68.4054C163.324 68.4089 163.346 68.4125 163.368 68.4202C163.475 68.4456 163.578 68.4751 163.68 68.5082C163.775 68.5377 163.874 68.5743 163.966 68.611C164.097 68.6623 164.226 68.7244 164.35 68.7905C164.42 68.8236 164.49 68.8602 164.555 68.9004C164.673 68.9666 164.786 69.0398 164.892 69.1201C164.896 69.1166 164.896 69.1201 164.896 69.1201L165.13 69.2997C165.142 69.3074 165.152 69.3145 165.16 69.3215C165.222 69.3694 165.278 69.4208 165.332 69.4716C165.376 69.5082 165.417 69.5484 165.457 69.5891C165.582 69.7102 165.699 69.8384 165.809 69.9778C165.861 70.0398 165.908 70.1024 165.952 70.1645C166.143 70.4244 166.304 70.7067 166.432 71.0074C166.469 71.0883 166.502 71.1722 166.535 71.2567C166.535 71.2602 166.539 71.2637 166.539 71.2679C166.59 71.4037 166.63 71.5425 166.667 71.682C166.685 71.7517 166.7 71.8178 166.715 71.8869C166.726 71.9419 166.737 71.9932 166.744 72.0482C166.755 72.1031 166.763 72.158 166.77 72.213C166.781 72.2791 166.788 72.3447 166.791 72.4109C166.799 72.4658 166.803 72.5243 166.803 72.5792C166.806 72.656 166.81 72.7369 166.81 72.8137H166.808Z" fill="#DFE5EA"/>
<path d="M166.536 71.2679H46.2725C46.5513 70.5018 47.0309 69.8313 47.6505 69.3222C47.6582 69.3151 47.6689 69.3074 47.6801 69.3003L47.9146 69.1207L103.633 26.8256C105.271 25.5798 107.539 25.5798 109.177 26.8256L164.891 69.1207C164.895 69.1172 164.895 69.1207 164.895 69.1207L165.129 69.3003C165.141 69.308 165.151 69.3151 165.159 69.3222C165.221 69.37 165.277 69.4214 165.331 69.4722C165.375 69.5088 165.416 69.549 165.456 69.5898C165.581 69.7108 165.698 69.839 165.808 69.9784C165.86 70.0405 165.907 70.1031 165.951 70.1651C166.142 70.425 166.303 70.7073 166.431 71.008C166.468 71.0889 166.501 71.1728 166.534 71.2573C166.534 71.2608 166.538 71.2644 166.538 71.2685L166.536 71.2679Z" fill="#2F3E33"/>
<g filter="url(#filter0_d_2573_748)">
<path d="M61.2849 33.9746H150.033C154.504 33.9746 158.134 37.6044 158.134 42.0759V137.303H53.1836V42.0759C53.1836 37.605 56.8134 33.9746 61.2849 33.9746Z" fill="#101D13"/>
</g>
<path d="M67.1002 52.0746H144.217C145.301 52.0746 146.182 52.9547 146.182 54.0392V54.8745C146.182 55.9584 145.302 56.8385 144.218 56.8385H67.1008C66.0168 56.8385 65.1367 55.9584 65.1367 54.8745V54.0392C65.1367 52.9553 66.0168 52.0752 67.1008 52.0752L67.1002 52.0746Z" fill="#88998C"/>
<path d="M67.0998 62.2516H144.217C145.301 62.2516 146.181 63.1317 146.181 64.2162V65.0515C146.181 66.1354 145.301 67.0161 144.217 67.0161H67.0998C66.0159 67.0161 65.1357 66.136 65.1357 65.0521V64.2168C65.1357 63.1329 66.0159 62.2528 67.0998 62.2528V62.2516Z" fill="#88998C"/>
<path d="M67.1002 72.4292H144.217C145.301 72.4292 146.182 73.3093 146.182 74.3938V75.2291C146.182 76.313 145.302 77.1931 144.218 77.1931H67.1008C66.0168 77.1931 65.1367 76.313 65.1367 75.2291V74.3938C65.1367 73.3099 66.0168 72.4298 67.1008 72.4298L67.1002 72.4292Z" fill="#88998C"/>
<path d="M67.1002 82.6062H144.217C145.301 82.6062 146.182 83.4863 146.182 84.5708V85.4061C146.182 86.49 145.302 87.3701 144.218 87.3701H67.1008C66.0168 87.3701 65.1367 86.49 65.1367 85.4061V84.5708C65.1367 83.4869 66.0168 82.6062 67.1014 82.6062H67.1002Z" fill="#88998C"/>
<path d="M67.1002 92.7832H144.217C145.301 92.7832 146.182 93.6633 146.182 94.7478V95.5831C146.182 96.667 145.302 97.5471 144.218 97.5471H67.1008C66.0168 97.5471 65.1367 96.667 65.1367 95.5831V94.7478C65.1367 93.6639 66.0168 92.7838 67.1008 92.7838L67.1002 92.7832Z" fill="#88998C"/>
<path d="M106.407 106.139V106.142C106.231 106.333 106.022 106.508 105.784 106.656L50.7761 140.595H50.5268C50.0691 140.595 49.629 140.529 49.2149 140.401C49.1564 140.383 49.0974 140.364 49.0424 140.346C48.3206 140.097 47.6791 139.668 47.177 139.111C47.1292 139.06 47.0819 139.005 47.0341 138.946C46.8947 138.781 46.7701 138.602 46.6566 138.415C46.6165 138.353 46.5834 138.29 46.5468 138.228C46.5137 138.162 46.4771 138.096 46.4481 138.03C46.1622 137.436 46.001 136.773 46.001 136.07V72.8137C46.001 72.2715 46.0961 71.7511 46.2721 71.2673C46.5509 70.5012 47.0306 69.8307 47.6502 69.3216C47.6579 69.3145 47.6685 69.3068 47.6797 69.2997L47.9142 69.1201C48.6508 68.5962 49.5522 68.2885 50.5268 68.2885H51.56L56.39 71.2679L100.913 98.7403L102.588 99.7734L105.784 101.745C106.022 101.892 106.231 102.068 106.407 102.258V102.261C107.4 103.35 107.4 105.054 106.407 106.139Z" fill="#4D5C51"/>
<path d="M166.808 72.8137V136.07C166.808 136.146 166.804 136.223 166.801 136.304C166.801 136.341 166.797 136.377 166.793 136.414C166.793 136.447 166.79 136.484 166.786 136.52C166.786 136.535 166.783 136.55 166.783 136.564C166.779 136.589 166.775 136.612 166.772 136.634C166.768 136.689 166.757 136.743 166.75 136.798C166.743 136.85 166.731 136.905 166.72 136.956C166.72 136.963 166.717 136.974 166.717 136.982C166.713 136.996 166.71 137.015 166.702 137.033C166.702 137.051 166.698 137.073 166.691 137.091C166.687 137.117 166.679 137.143 166.672 137.168C166.661 137.216 166.65 137.26 166.636 137.308C166.636 137.315 166.632 137.326 166.628 137.333C166.606 137.414 166.58 137.494 166.551 137.571C166.551 137.575 166.551 137.579 166.548 137.582C166.533 137.622 166.522 137.659 166.504 137.7C166.493 137.733 166.479 137.766 166.464 137.803C166.46 137.81 166.456 137.821 166.453 137.832C166.409 137.931 166.365 138.034 166.313 138.129C166.298 138.158 166.28 138.195 166.262 138.228C166.244 138.261 166.225 138.29 166.207 138.323C166.189 138.353 166.174 138.385 166.152 138.415C166.115 138.477 166.075 138.539 166.034 138.598C166.009 138.638 165.983 138.671 165.961 138.708C165.899 138.792 165.837 138.869 165.774 138.946C165.727 139.004 165.679 139.059 165.632 139.11C165.584 139.165 165.533 139.217 165.482 139.268C165.46 139.294 165.434 139.316 165.408 139.341C165.386 139.363 165.365 139.385 165.339 139.403C165.313 139.429 165.284 139.455 165.254 139.48C165.247 139.487 165.236 139.495 165.228 139.502C165.158 139.564 165.085 139.623 165.012 139.678C165.004 139.682 164.997 139.689 164.99 139.696C164.932 139.737 164.873 139.781 164.811 139.821C164.789 139.836 164.77 139.851 164.752 139.861C164.719 139.883 164.686 139.905 164.653 139.924C164.628 139.942 164.602 139.957 164.572 139.972C164.543 139.99 164.514 140.008 164.484 140.023C164.279 140.141 164.063 140.239 163.839 140.32C163.825 140.323 163.81 140.331 163.799 140.334C163.784 140.338 163.766 140.346 163.751 140.349C163.7 140.367 163.649 140.386 163.594 140.4C163.502 140.43 163.411 140.452 163.319 140.474C163.271 140.485 163.224 140.496 163.176 140.507C163.147 140.514 163.114 140.518 163.084 140.522C163.048 140.529 163.008 140.536 162.971 140.543H162.96C162.927 140.547 162.894 140.555 162.865 140.558C162.85 140.558 162.835 140.562 162.821 140.562C162.796 140.565 162.77 140.569 162.741 140.572C162.726 140.572 162.711 140.576 162.693 140.576C162.638 140.579 162.579 140.584 162.524 140.587C162.444 140.591 162.363 140.594 162.282 140.594H162.033L107.026 106.654C106.788 106.508 106.578 106.332 106.407 106.141V106.137C105.41 105.049 105.41 103.352 106.407 102.26V102.257C106.579 102.066 106.788 101.89 107.026 101.744L110.217 99.7722L111.892 98.7391L156.419 71.2667L161.248 68.2872H162.281C162.391 68.2872 162.497 68.2908 162.604 68.302C162.622 68.2985 162.644 68.302 162.662 68.3055C162.765 68.3126 162.871 68.3239 162.97 68.3386C162.992 68.3422 163.018 68.3457 163.04 68.3498C163.128 68.3646 163.216 68.3829 163.3 68.4048C163.321 68.4083 163.343 68.4119 163.366 68.4195C163.472 68.4449 163.575 68.4745 163.677 68.5076C163.772 68.5371 163.871 68.5737 163.963 68.6103C164.095 68.6617 164.223 68.7237 164.347 68.7899C164.417 68.823 164.487 68.8596 164.552 68.8998C164.67 68.9659 164.783 69.0392 164.89 69.1195C164.893 69.116 164.893 69.1195 164.893 69.1195L165.128 69.2991C165.139 69.3068 165.15 69.3139 165.157 69.3209C165.219 69.3688 165.275 69.4202 165.33 69.471C165.373 69.5076 165.414 69.5478 165.454 69.5885C165.579 69.7096 165.696 69.8378 165.806 69.9772C165.858 70.0392 165.905 70.1018 165.949 70.1638C166.14 70.4238 166.301 70.7061 166.43 71.0068C166.466 71.0877 166.499 71.1716 166.532 71.256C166.532 71.2596 166.536 71.2631 166.536 71.2673C166.587 71.4031 166.627 71.5419 166.664 71.6813C166.682 71.751 166.697 71.8172 166.712 71.8863C166.723 71.9412 166.734 71.9926 166.741 72.0476C166.752 72.1025 166.76 72.1574 166.767 72.2124C166.778 72.2785 166.785 72.3441 166.789 72.4102C166.796 72.4652 166.8 72.5237 166.8 72.5786C166.803 72.6554 166.807 72.7363 166.807 72.8131L166.808 72.8137Z" fill="#4D5C51"/>
<path opacity="0.2" d="M166.808 135.214V135.872C166.808 138.48 164.781 140.595 162.282 140.595H50.5268C48.0276 140.595 46.001 138.48 46.001 135.872V135.214L103.482 97.3952C105.266 96.221 107.539 96.221 109.323 97.3952L166.807 135.214H166.808Z" fill="black"/>
<path d="M166.808 135.44V136.07C166.808 138.569 164.781 140.595 162.282 140.595H50.5268C48.0276 140.595 46.001 138.569 46.001 136.07V135.44L103.482 99.2092C105.266 98.0846 107.539 98.0846 109.323 99.2092L166.807 135.44H166.808Z" fill="#4D5C51"/>
<path d="M67.1002 41.8976H100.732C101.816 41.8976 102.697 42.7777 102.697 43.8622V44.6974C102.697 45.7814 101.817 46.6615 100.733 46.6615H67.1008C66.0168 46.6615 65.1367 45.7814 65.1367 44.6974V43.8622C65.1367 42.7783 66.0168 41.8982 67.1008 41.8982L67.1002 41.8976Z" fill="#88998C"/>
<path d="M61.5909 131.889C61.5808 131.889 61.5708 131.889 61.5608 131.888C60.2211 131.835 58.8725 131.719 57.5523 131.544C57.1459 131.49 56.8606 131.117 56.9144 130.711C56.9681 130.305 57.3415 130.017 57.7473 130.074C59.0226 130.243 60.325 130.355 61.6198 130.407C62.0292 130.422 62.3476 130.767 62.3316 131.177C62.3157 131.576 61.9867 131.889 61.5909 131.889V131.889ZM65.5438 131.87C65.151 131.87 64.8232 131.561 64.8037 131.164C64.7836 130.754 65.099 130.407 65.5083 130.387C66.7872 130.325 68.0914 130.206 69.3845 130.033C69.7914 129.978 70.1636 130.264 70.2179 130.67C70.2723 131.076 69.987 131.449 69.5812 131.503C68.2468 131.682 66.9006 131.805 65.5804 131.869C65.568 131.869 65.5562 131.87 65.5438 131.87ZM53.7583 130.846C53.7034 130.846 53.6473 130.84 53.5918 130.827C52.291 130.528 50.9874 130.163 49.7162 129.741C49.3276 129.613 49.1167 129.193 49.2455 128.804C49.3742 128.415 49.7948 128.204 50.1829 128.334C51.4097 128.741 52.6685 129.093 53.9237 129.382C54.323 129.474 54.5723 129.871 54.4802 130.271C54.401 130.614 54.0956 130.847 53.7577 130.847L53.7583 130.846ZM73.3787 130.831C73.0367 130.831 72.729 130.593 72.6539 130.245C72.5677 129.845 72.8229 129.451 73.2234 129.365C74.4809 129.094 75.7533 128.77 77.0038 128.402C77.3966 128.287 77.8095 128.51 77.9247 128.904C78.0404 129.297 77.816 129.709 77.4226 129.825C76.1366 130.204 74.8289 130.536 73.5347 130.815C73.4821 130.826 73.4295 130.832 73.3781 130.832L73.3787 130.831ZM80.9673 128.604C80.6666 128.604 80.3837 128.42 80.2721 128.122C80.1291 127.738 80.3241 127.311 80.708 127.168C81.9201 126.716 83.1346 126.215 84.3195 125.678C84.6922 125.509 85.1323 125.675 85.3012 126.047C85.4702 126.421 85.3048 126.86 84.9314 127.029C83.7164 127.579 82.4694 128.094 81.2266 128.557C81.141 128.589 81.0536 128.604 80.9679 128.604L80.9673 128.604ZM46.2518 128.369C46.1544 128.369 46.0551 128.35 45.96 128.31C44.7592 127.795 43.5394 127.218 42.3332 126.594C41.9693 126.406 41.827 125.959 42.0148 125.595C42.2032 125.231 42.651 125.088 43.0143 125.277C44.1885 125.884 45.3764 126.445 46.5442 126.946C46.9205 127.107 47.0947 127.543 46.9335 127.92C46.813 128.201 46.5389 128.369 46.2512 128.369H46.2518ZM88.172 125.338C87.9085 125.338 87.6528 125.197 87.5187 124.949C87.3237 124.589 87.4578 124.139 87.8181 123.944C88.8613 123.38 89.8537 122.797 90.7675 122.213C91.1118 121.993 91.5708 122.093 91.7917 122.439C92.012 122.784 91.911 123.243 91.5661 123.463C90.6216 124.067 89.5979 124.667 88.5234 125.249C88.4112 125.309 88.2907 125.338 88.1714 125.338H88.172ZM39.222 124.741C39.0909 124.741 38.958 124.706 38.8381 124.634C37.6892 123.937 36.561 123.198 35.4841 122.438C35.1492 122.202 35.0695 121.739 35.3057 121.404C35.542 121.07 36.0045 120.991 36.3395 121.226C37.3885 121.966 38.4878 122.686 39.6077 123.365C39.958 123.578 40.0697 124.034 39.857 124.384C39.7176 124.614 39.4731 124.741 39.2226 124.741H39.222ZM32.761 120.173C32.5951 120.173 32.4279 120.117 32.2897 120.003C31.2843 119.175 30.3209 118.315 29.4236 117.446C29.3504 117.395 29.2872 117.33 29.2376 117.258C29.0037 116.97 29.0184 116.545 29.2836 116.274C29.5294 116.021 29.911 115.982 30.1992 116.158C31.4007 116.427 32.6199 116.63 33.8272 116.765C34.2342 116.809 34.5278 117.176 34.4829 117.583C34.438 117.991 34.0747 118.285 33.6642 118.239C33.2058 118.188 32.7457 118.128 32.2855 118.058C32.5968 118.328 32.9129 118.596 33.2336 118.86C33.5496 119.12 33.5945 119.587 33.334 119.904C33.1875 120.082 32.9749 120.174 32.761 120.174V120.173ZM37.6933 118.444C37.2869 118.444 36.9555 118.117 36.952 117.709C36.9485 117.3 37.2775 116.965 37.6868 116.961C38.7199 116.952 39.7631 116.892 40.7885 116.783C40.9988 116.76 41.2463 116.734 41.5535 116.697C41.9575 116.643 42.3291 116.939 42.3781 117.345C42.4265 117.752 42.1365 118.121 41.7295 118.17C41.4153 118.208 41.1613 118.235 40.9764 118.254C39.873 118.371 38.7808 118.434 37.7004 118.444H37.6939L37.6933 118.444ZM45.5519 117.528C45.2087 117.528 44.9003 117.288 44.8271 116.939C44.7426 116.538 44.999 116.145 45.4001 116.06C46.6919 115.789 47.9601 115.461 49.1693 115.088C49.5621 114.969 49.9761 115.187 50.0966 115.578C50.2177 115.97 49.998 116.385 49.6064 116.506C48.3541 116.892 47.0416 117.231 45.7054 117.512C45.654 117.523 45.6021 117.528 45.5519 117.528ZM26.0526 116.479C25.9711 116.479 25.8884 116.465 25.8068 116.437C24.5493 115.995 23.2952 115.474 22.0796 114.892C21.7104 114.714 21.5545 114.272 21.7317 113.902C21.9089 113.533 22.3519 113.378 22.7211 113.554C23.8877 114.114 25.0909 114.613 26.2983 115.037C26.6846 115.173 26.8878 115.597 26.7519 115.983C26.645 116.288 26.3586 116.479 26.0526 116.479V116.479ZM53.1062 115.18C52.8185 115.18 52.545 115.011 52.4245 114.731C52.2627 114.355 52.4369 113.919 52.8132 113.757C54.0354 113.232 55.1937 112.645 56.2564 112.014C56.6078 111.805 57.0632 111.92 57.2729 112.272C57.482 112.624 57.3663 113.08 57.0142 113.289C55.896 113.953 54.6798 114.57 53.3992 115.12C53.3035 115.161 53.2043 115.18 53.1068 115.18L53.1062 115.18ZM27.1229 114.639C26.9114 114.639 26.7012 114.549 26.5547 114.375C25.6633 113.314 24.8499 112.224 24.137 111.136C23.9125 110.793 24.0082 110.333 24.3508 110.109C24.6934 109.885 25.1529 109.98 25.3774 110.323C26.0585 111.362 26.8364 112.405 27.69 113.421C27.9534 113.735 27.9127 114.203 27.599 114.466C27.4602 114.583 27.2907 114.64 27.1223 114.64L27.1229 114.639ZM18.9318 113.066C18.7983 113.066 18.6636 113.03 18.5419 112.955C17.4037 112.25 16.2896 111.477 15.2305 110.654C14.9068 110.403 14.8478 109.937 15.0994 109.614C15.351 109.291 15.8165 109.231 16.1402 109.483C17.1585 110.272 18.2295 111.017 19.3234 111.693C19.6719 111.908 19.7794 112.366 19.5638 112.714C19.4238 112.94 19.1811 113.065 18.9324 113.065L18.9318 113.066ZM59.8637 111.114C59.6522 111.114 59.442 111.024 59.2955 110.849C59.032 110.536 59.0728 110.068 59.3864 109.804C60.3841 108.967 61.2814 108.055 62.0534 107.094C62.3103 106.775 62.7776 106.724 63.096 106.98C63.4149 107.237 63.4663 107.703 63.2094 108.024C62.3771 109.059 61.4113 110.041 60.3398 110.94C60.201 111.057 60.0315 111.114 59.8631 111.114H59.8637ZM12.6947 108.224C12.5098 108.224 12.3243 108.156 12.1802 108.017C11.2115 107.085 10.2853 106.093 9.42876 105.068C9.16591 104.753 9.20785 104.286 9.52209 104.023C9.83634 103.76 10.3042 103.802 10.5664 104.117C11.3893 105.1 12.2783 106.053 13.2086 106.948C13.5039 107.232 13.5128 107.702 13.2287 107.997C13.0828 108.148 12.889 108.225 12.6941 108.225L12.6947 108.224ZM22.828 108.022C22.5486 108.022 22.281 107.864 22.1552 107.593C21.5669 106.329 21.0949 105.042 20.7523 103.766C20.646 103.37 20.8805 102.963 21.2762 102.857C21.672 102.749 22.0784 102.986 22.1847 103.381C22.5055 104.574 22.9479 105.781 23.4996 106.967C23.6727 107.339 23.5114 107.78 23.1399 107.953C23.0389 107.999 22.932 108.022 22.8274 108.022L22.828 108.022ZM64.7558 104.979C64.6453 104.979 64.5337 104.954 64.428 104.902C64.0606 104.72 63.9099 104.276 64.0919 103.909C64.6129 102.854 65.0311 101.729 65.3347 100.563L65.3884 100.353C65.4877 99.9553 65.8911 99.7131 66.2881 99.8135C66.6856 99.9127 66.9272 100.316 66.8279 100.713L66.7712 100.936C66.4416 102.2 65.988 103.421 65.4221 104.566C65.2927 104.827 65.0299 104.979 64.7564 104.979H64.7558ZM7.63366 102.166C7.39325 102.166 7.15756 102.049 7.01461 101.834C6.27211 100.714 5.58751 99.5406 4.97969 98.3462C4.79362 97.9812 4.93893 97.5346 5.30397 97.3486C5.66843 97.1619 6.11558 97.3078 6.30106 97.6728C6.88348 98.8164 7.53974 99.9411 8.25093 101.014C8.47716 101.356 8.38383 101.816 8.04242 102.042C7.9166 102.125 7.77424 102.166 7.63307 102.166L7.63366 102.166ZM20.8202 100.425C20.4327 100.425 20.1061 100.124 20.0807 99.732C20.0535 99.3097 20.0393 98.8808 20.0393 98.4561C20.0393 97.5175 20.1073 96.5682 20.2414 95.6344C20.2998 95.2286 20.6732 94.9474 21.0807 95.0053C21.4859 95.0638 21.7677 95.4394 21.7092 95.8447C21.5852 96.7088 21.522 97.5872 21.522 98.4555C21.522 98.8483 21.535 99.2453 21.5604 99.6351C21.5869 100.044 21.2768 100.397 20.8681 100.423C20.8521 100.424 20.8356 100.425 20.8196 100.425L20.8202 100.425ZM66.6673 97.3645C66.6561 97.3645 66.6454 97.3645 66.6348 97.3639C66.2254 97.3462 65.9082 97.0001 65.926 96.5907C65.9384 96.3042 65.9443 96.0177 65.9443 95.7313C65.9443 94.759 65.8734 93.7678 65.7328 92.7831C65.6749 92.3773 65.9567 92.0022 66.3625 91.9443C66.7677 91.8864 67.1434 92.1682 67.2013 92.574C67.3513 93.6272 67.4275 94.6893 67.4275 95.7307C67.4275 96.0384 67.421 96.3462 67.408 96.6545C67.3909 97.0526 67.0625 97.3645 66.6679 97.3645H66.6673ZM4.05112 95.1323C3.75046 95.1323 3.46751 94.948 3.35647 94.6497C2.89041 93.401 2.48756 92.1044 2.15796 90.7954C2.05813 90.3979 2.29913 89.9951 2.69607 89.8952C3.09361 89.7966 3.49646 90.0364 3.59629 90.4339C3.9123 91.6898 4.29862 92.9337 4.74577 94.1311C4.88931 94.515 4.69438 94.9421 4.31043 95.0856C4.22478 95.1175 4.13736 95.1323 4.05112 95.1323ZM21.9083 92.6425C21.8291 92.6425 21.7488 92.6301 21.6696 92.603C21.2822 92.4712 21.0742 92.0501 21.206 91.662C21.6301 90.4144 22.1694 89.158 22.8097 87.9265C22.9993 87.5632 23.4464 87.422 23.8103 87.611C24.1736 87.8001 24.3154 88.2478 24.1257 88.6117C23.5203 89.7759 23.0105 90.9632 22.61 92.1399C22.5055 92.4488 22.2166 92.6431 21.9077 92.6431L21.9083 92.6425ZM65.5745 89.5715C65.2614 89.5715 64.9702 89.3719 64.8686 89.057C64.48 87.8503 63.9861 86.6588 63.4019 85.5164C63.2153 85.1514 63.36 84.7048 63.7245 84.5182C64.0889 84.3315 64.5361 84.4762 64.7227 84.8407C65.3435 86.054 65.8675 87.3198 66.281 88.6016C66.4068 88.9915 66.1924 89.4097 65.8025 89.5355C65.7269 89.5597 65.6501 89.5715 65.5745 89.5715ZM2.1172 87.4764C1.75392 87.4764 1.43613 87.2088 1.38356 86.839C1.19749 85.5253 1.07581 84.175 1.02206 82.8259C1.00611 82.4165 1.32449 82.0715 1.73325 82.0556C2.15323 82.0414 2.48756 82.358 2.5041 82.7668C2.55608 84.0663 2.67304 85.3664 2.85202 86.6305C2.90931 87.0363 2.62696 87.4114 2.22175 87.4687C2.18631 87.474 2.15146 87.4764 2.1172 87.4764ZM25.5263 85.6346C25.3786 85.6346 25.2297 85.5909 25.0998 85.4993C24.7649 85.2636 24.6845 84.8011 24.9202 84.4662C25.6917 83.3705 26.5452 82.309 27.4566 81.3107C27.7331 81.0083 28.2021 80.987 28.5045 81.2629C28.807 81.5393 28.8282 82.0083 28.5518 82.3108C27.6823 83.263 26.8683 84.2754 26.1329 85.3192C25.9882 85.5247 25.759 85.634 25.5257 85.634L25.5263 85.6346ZM61.9902 82.5559C61.7616 82.5559 61.5365 82.4508 61.3912 82.2523C60.6304 81.2139 59.7869 80.2392 58.8843 79.3555C58.5919 79.0691 58.5866 78.5995 58.8731 78.3065C59.1596 78.0141 59.6286 78.0082 59.9222 78.2953C60.8826 79.235 61.7799 80.2717 62.5886 81.3757C62.8307 81.7065 62.7587 82.1702 62.4285 82.4124C62.2968 82.5092 62.1432 82.5559 61.9908 82.5559H61.9902ZM30.8519 79.8068C30.6416 79.8068 30.4325 79.7176 30.286 79.5446C30.0214 79.2321 30.0598 78.7643 30.3723 78.499C31.416 77.6142 32.5135 76.8044 33.6335 76.0914C33.979 75.8711 34.438 75.9733 34.6572 76.3188C34.8769 76.6644 34.7753 77.1227 34.4297 77.3425C33.3659 78.0194 32.3239 78.7891 31.331 79.6308C31.1916 79.7489 31.0215 79.8068 30.8519 79.8068ZM1.79881 79.5836C1.78464 79.5836 1.76987 79.5836 1.7557 79.5824C1.34694 79.5587 1.03446 79.2085 1.0575 78.7991C1.13547 77.4382 1.28019 76.0902 1.48811 74.7925C1.5525 74.3884 1.93231 74.1126 2.33752 74.177C2.74215 74.2414 3.01741 74.6218 2.95302 75.0264C2.75337 76.2751 2.61456 77.5734 2.53895 78.8842C2.51591 79.2788 2.18926 79.5836 1.79881 79.5836ZM56.3456 77.0631C56.202 77.0631 56.0573 77.0217 55.9297 76.9349C54.8611 76.2101 53.7377 75.5982 52.5905 75.1162C52.2131 74.9573 52.0353 74.5225 52.1942 74.1451C52.3531 73.767 52.789 73.5898 53.1653 73.7487C54.4022 74.2691 55.6125 74.9277 56.762 75.7074C57.101 75.9372 57.1896 76.3985 56.9593 76.7376C56.8157 76.9491 56.5824 77.0631 56.345 77.0631H56.3456ZM37.5137 75.5928C37.2284 75.5928 36.9567 75.4275 36.8344 75.1492C36.6696 74.7742 36.8404 74.3365 37.2149 74.1716C38.4866 73.6129 39.7855 73.1704 41.075 72.8568C41.4731 72.7593 41.8742 73.0039 41.9711 73.402C42.068 73.8001 41.8234 74.2012 41.4259 74.2981C40.2209 74.591 39.0046 75.0057 37.812 75.5296C37.7152 75.5722 37.6136 75.5923 37.5143 75.5923L37.5137 75.5928ZM49.0972 74.0452C49.0529 74.0452 49.008 74.0411 48.9631 74.0328C47.9501 73.8479 46.9087 73.754 45.8691 73.754C45.6594 73.7505 45.4136 73.7582 45.1862 73.767C44.7757 73.7895 44.4325 73.4634 44.4166 73.0547C44.4006 72.6453 44.7196 72.3003 45.1289 72.285C45.3752 72.2755 45.6393 72.2803 45.8691 72.2708C46.9979 72.2708 48.1279 72.3724 49.2289 72.5738C49.6318 72.6477 49.8988 73.034 49.8255 73.4368C49.7599 73.7948 49.4481 74.0452 49.0966 74.0452H49.0972ZM3.07293 71.79C3.00619 71.79 2.93885 71.7811 2.87151 71.7622C2.47693 71.6512 2.24774 71.2418 2.3582 70.8472C2.72029 69.5607 3.1574 68.2766 3.65772 67.0314C3.81012 66.651 4.2425 66.4673 4.62291 66.6197C5.00272 66.7727 5.18702 67.2045 5.03462 67.5849C4.5538 68.7804 4.13382 70.0132 3.78649 71.2489C3.69434 71.5762 3.39663 71.79 3.07293 71.79ZM6.01221 64.4666C5.89526 64.4666 5.77594 64.4388 5.66548 64.3798C5.30338 64.1878 5.16575 63.7389 5.35773 63.3774C5.98209 62.2007 6.67851 61.0377 7.4281 59.9195C7.65669 59.5798 8.11743 59.4883 8.45708 59.7169C8.79732 59.9449 8.88769 60.4056 8.65969 60.7459C7.93845 61.8215 7.26802 62.9403 6.66788 64.072C6.53497 64.3231 6.27802 64.4666 6.01221 64.4666ZM10.4081 57.904C10.2416 57.904 10.0744 57.8485 9.93617 57.7339C9.62074 57.4728 9.57585 57.0056 9.83693 56.6896C10.6852 55.663 11.5978 54.6617 12.5494 53.7137C12.8394 53.4248 13.3096 53.4254 13.5984 53.7155C13.8879 54.0055 13.8867 54.4751 13.5967 54.7645C12.6787 55.6795 11.7986 56.6453 10.9805 57.6353C10.834 57.8125 10.622 57.904 10.4087 57.904H10.4081ZM16.0032 52.3232C15.7893 52.3232 15.5773 52.2311 15.4308 52.0533C15.1697 51.7372 15.2146 51.27 15.5306 51.0095C16.5566 50.1625 17.6388 49.3491 18.7469 48.5918C19.0848 48.3609 19.5467 48.4477 19.7777 48.7856C20.0086 49.124 19.9218 49.5854 19.5839 49.8163C18.5124 50.5488 17.4663 51.335 16.4745 52.1531C16.3363 52.2671 16.1691 52.3232 16.0026 52.3232H16.0032ZM22.5291 47.8605C22.2698 47.8605 22.0176 47.7241 21.8817 47.4813C21.6815 47.1239 21.8085 46.6721 22.1658 46.4718C23.3259 45.8215 24.5339 45.2113 25.756 44.6596C26.1294 44.4901 26.5688 44.6566 26.7372 45.0299C26.9061 45.4033 26.7401 45.8427 26.3668 46.0111C25.1837 46.5457 24.0147 47.1358 22.8912 47.7654C22.7766 47.8298 22.652 47.8605 22.5291 47.8605ZM29.7338 44.6023C29.4284 44.6023 29.1419 44.4121 29.0344 44.1079C28.8979 43.7216 29.1005 43.298 29.4868 43.1616C30.7409 42.7186 32.0327 42.3222 33.3263 41.9832C33.7215 41.8792 34.1279 42.1167 34.2319 42.513C34.3358 42.9094 34.0984 43.3146 33.702 43.4185C32.448 43.747 31.1963 44.1315 29.9813 44.5604C29.8992 44.5893 29.8159 44.6029 29.7343 44.6029L29.7338 44.6023Z" fill="#617064"/>
<path opacity="0.1" d="M66.7239 24.123L10.7637 31.59L24.3307 41.8804L24.5433 60.8203L36.2348 50.8902L42.8045 55.8437L66.7239 24.123Z" fill="#232323"/>
<g filter="url(#filter1_d_2573_748)">
<path d="M25.7642 59.6719L25.4541 32.0058L67.9454 22.9747L25.7642 59.6719Z" fill="url(#paint0_linear_2573_748)"/>
</g>
<g filter="url(#filter2_d_2573_748)">
<path d="M25.6435 40.8018C25.8585 40.6937 67.9446 22.9747 67.9446 22.9747L11.9844 30.4416L25.6435 40.8018Z" fill="url(#paint1_linear_2573_748)"/>
</g>
<g filter="url(#filter3_d_2573_748)">
<path d="M30.2828 44.3329L25.7646 59.672L45.1428 43.2124L30.2828 44.3329Z" fill="url(#paint2_linear_2573_748)"/>
</g>
<g filter="url(#filter4_d_2573_748)">
<path d="M30.2822 44.3329L44.0252 54.6948L67.9453 22.9747L30.2822 44.3329Z" fill="url(#paint3_linear_2573_748)"/>
</g>
<path d="M142.833 133.794C142.481 133.794 142.129 133.786 141.776 133.772C141.367 133.756 141.049 133.41 141.065 133.001C141.082 132.592 141.433 132.275 141.836 132.29C143.107 132.342 144.386 132.294 145.67 132.147C146.075 132.099 146.445 132.393 146.491 132.799C146.537 133.206 146.245 133.574 145.839 133.62C144.836 133.736 143.824 133.793 142.833 133.793V133.794ZM137.886 133.284C137.835 133.284 137.784 133.278 137.732 133.268C136.409 132.988 135.097 132.593 133.832 132.094C133.451 131.943 133.265 131.512 133.415 131.131C133.566 130.75 133.997 130.565 134.378 130.714C135.564 131.184 136.796 131.554 138.038 131.816C138.438 131.901 138.695 132.295 138.611 132.695C138.537 133.044 138.229 133.284 137.886 133.284V133.284ZM149.637 132.894C149.307 132.894 149.007 132.674 148.92 132.34C148.816 131.944 149.053 131.539 149.449 131.435C150.67 131.115 151.901 130.704 153.108 130.213C153.488 130.059 153.92 130.242 154.074 130.621C154.228 131.001 154.046 131.433 153.666 131.587C152.4 132.102 151.108 132.534 149.825 132.87C149.762 132.886 149.699 132.894 149.637 132.894ZM130.562 130.401C130.433 130.401 130.302 130.367 130.184 130.296C129.048 129.62 127.928 128.837 126.857 127.97C126.538 127.713 126.489 127.246 126.747 126.927C127.005 126.608 127.472 126.559 127.79 126.817C128.806 127.64 129.867 128.382 130.941 129.022C131.293 129.231 131.409 129.686 131.2 130.038C131.061 130.272 130.814 130.401 130.562 130.401V130.401ZM156.954 129.933C156.693 129.933 156.44 129.795 156.305 129.551C156.107 129.192 156.236 128.741 156.594 128.542C157.713 127.922 158.813 127.226 159.865 126.474C160.197 126.236 160.66 126.313 160.899 126.646C161.138 126.979 161.061 127.443 160.728 127.681C159.63 128.465 158.482 129.191 157.314 129.839C157.2 129.902 157.077 129.932 156.955 129.932L156.954 129.933ZM124.416 125.455C124.221 125.455 124.026 125.379 123.881 125.227C122.971 124.279 122.087 123.247 121.252 122.161C121.002 121.836 121.063 121.37 121.388 121.121C121.713 120.871 122.178 120.932 122.428 121.257C123.231 122.3 124.079 123.29 124.952 124.199C125.235 124.494 125.226 124.964 124.931 125.248C124.787 125.386 124.602 125.455 124.417 125.455H124.416ZM163.377 125.344C163.175 125.344 162.973 125.262 162.826 125.099C162.552 124.795 162.576 124.326 162.88 124.052C163.846 123.181 164.761 122.256 165.599 121.3C165.87 120.993 166.338 120.961 166.646 121.231C166.953 121.502 166.984 121.97 166.714 122.278C165.838 123.277 164.883 124.244 163.874 125.153C163.732 125.28 163.555 125.344 163.378 125.344L163.377 125.344ZM165.927 120.938C165.55 120.938 165.227 120.651 165.19 120.268C165.15 119.86 165.448 119.498 165.855 119.457C166.565 119.388 167.28 119.274 167.991 119.118C167.798 118.871 167.775 118.519 167.959 118.245C168.694 117.155 169.338 116.034 169.874 114.913C170.051 114.543 170.494 114.386 170.863 114.564C171.232 114.741 171.389 115.184 171.212 115.553C170.698 116.627 170.091 117.701 169.405 118.749C169.461 118.731 169.517 118.714 169.573 118.697C169.967 118.576 170.381 118.793 170.503 119.183C170.625 119.574 170.407 119.991 170.016 120.113C168.69 120.527 167.338 120.804 165.998 120.935C165.974 120.937 165.949 120.938 165.925 120.938L165.927 120.938ZM161.982 120.881C161.95 120.881 161.919 120.879 161.887 120.874C160.589 120.707 159.246 120.394 157.898 119.942C157.51 119.812 157.3 119.392 157.43 119.004C157.561 118.615 157.98 118.405 158.369 118.536C159.626 118.957 160.874 119.249 162.076 119.404C162.483 119.456 162.77 119.828 162.717 120.234C162.669 120.608 162.35 120.881 161.982 120.881ZM119.586 119.197C119.338 119.197 119.096 119.073 118.956 118.848C118.237 117.695 117.574 116.511 116.986 115.329C116.804 114.962 116.953 114.517 117.32 114.335C117.686 114.152 118.131 114.302 118.314 114.669C118.881 115.808 119.519 116.95 120.213 118.063C120.43 118.41 120.324 118.868 119.976 119.085C119.854 119.161 119.718 119.198 119.585 119.198L119.586 119.197ZM173.439 118.617C173.173 118.617 172.916 118.475 172.783 118.224C172.59 117.862 172.728 117.413 173.09 117.221C174.198 116.632 175.278 115.933 176.303 115.144C176.628 114.894 177.094 114.954 177.343 115.278C177.593 115.603 177.533 116.069 177.208 116.319C176.118 117.158 174.967 117.903 173.786 118.531C173.675 118.59 173.556 118.617 173.439 118.617ZM154.506 118.406C154.387 118.406 154.266 118.377 154.154 118.316C152.923 117.649 151.778 116.883 150.752 116.041C150.435 115.781 150.389 115.313 150.65 114.997C150.91 114.68 151.378 114.634 151.694 114.895C152.647 115.678 153.713 116.391 154.861 117.013C155.221 117.208 155.355 117.658 155.159 118.018C155.025 118.266 154.77 118.407 154.506 118.407V118.406ZM179.687 113.823C179.503 113.823 179.32 113.756 179.176 113.619C178.879 113.337 178.867 112.868 179.149 112.571C180.02 111.653 180.84 110.652 181.585 109.596C181.821 109.263 182.283 109.182 182.619 109.418C182.954 109.654 183.033 110.117 182.797 110.452C182.011 111.566 181.145 112.623 180.225 113.592C180.079 113.745 179.883 113.823 179.687 113.823V113.823ZM148.474 113.377C148.25 113.377 148.029 113.276 147.883 113.084C147.018 111.946 146.337 110.726 145.858 109.458C145.713 109.075 145.907 108.647 146.289 108.502C146.672 108.358 147.1 108.55 147.246 108.933C147.674 110.067 148.286 111.162 149.064 112.186C149.312 112.513 149.248 112.978 148.922 113.226C148.788 113.327 148.63 113.377 148.474 113.377L148.474 113.377ZM171.937 112.279C171.872 112.279 171.806 112.271 171.74 112.252C171.345 112.144 171.113 111.735 171.221 111.341C171.569 110.075 171.774 108.819 171.83 107.608C171.849 107.199 172.182 106.885 172.605 106.901C173.015 106.92 173.331 107.267 173.312 107.677C173.25 108.997 173.028 110.362 172.652 111.733C172.562 112.063 172.263 112.279 171.937 112.279ZM184.241 107.387C184.126 107.387 184.01 107.36 183.901 107.303C183.537 107.116 183.395 106.668 183.583 106.305C184.166 105.175 184.684 103.985 185.122 102.77C185.261 102.384 185.686 102.184 186.071 102.323C186.457 102.463 186.657 102.887 186.518 103.273C186.058 104.548 185.514 105.797 184.9 106.985C184.768 107.24 184.509 107.387 184.241 107.387ZM145.751 106.084C145.358 106.084 145.03 105.775 145.011 105.378C144.999 105.15 144.993 104.921 144.993 104.692C144.993 103.56 145.13 102.402 145.4 101.249C145.493 100.849 145.895 100.601 146.291 100.695C146.689 100.789 146.937 101.187 146.844 101.586C146.601 102.628 146.477 103.673 146.477 104.692C146.477 104.897 146.483 105.101 146.493 105.306C146.513 105.716 146.197 106.063 145.787 106.083C145.775 106.083 145.763 106.084 145.751 106.084V106.084ZM172.256 104.45C171.91 104.45 171.6 104.206 171.53 103.854C171.287 102.643 170.914 101.417 170.419 100.209C170.264 99.8294 170.446 99.3964 170.825 99.2411C171.203 99.0869 171.637 99.2676 171.792 99.6469C172.322 100.943 172.724 102.26 172.984 103.563C173.065 103.965 172.804 104.356 172.403 104.436C172.354 104.446 172.305 104.45 172.256 104.45ZM147.484 98.4548C147.37 98.4548 147.256 98.4289 147.148 98.3745C146.783 98.1885 146.637 97.7425 146.823 97.3768C147.45 96.1452 148.216 94.9893 149.099 93.9426C149.363 93.6295 149.831 93.5899 150.145 93.8546C150.458 94.1192 150.497 94.587 150.233 94.9001C149.422 95.8594 148.721 96.9191 148.146 98.049C148.015 98.3066 147.754 98.4548 147.484 98.4548H147.484ZM169.288 97.1595C169.044 97.1595 168.804 97.039 168.663 96.8175C167.953 95.7081 167.16 94.7069 166.308 93.8433C166.021 93.5515 166.024 93.0819 166.316 92.7943C166.607 92.5066 167.077 92.5096 167.365 92.8014C168.29 93.7388 169.146 94.8209 169.912 96.0177C170.133 96.3626 170.032 96.8216 169.687 97.0419C169.563 97.1211 169.425 97.1589 169.288 97.1589V97.1595ZM152.564 92.4853C152.331 92.4853 152.102 92.3755 151.958 92.1711C151.721 91.8362 151.802 91.3737 152.136 91.1374C153.334 90.2927 154.593 89.6695 155.88 89.2856C156.273 89.1698 156.686 89.3913 156.803 89.7841C156.92 90.1769 156.697 90.5898 156.305 90.7068C155.172 91.0452 154.057 91.5975 152.991 92.3495C152.861 92.441 152.711 92.4853 152.564 92.4853H152.564ZM163.72 91.6483C163.597 91.6483 163.473 91.6182 163.359 91.5532C162.234 90.9241 161.074 90.5313 159.908 90.3866C159.502 90.3358 159.213 89.9655 159.264 89.5591C159.315 89.1527 159.681 88.8638 160.091 88.9146C161.448 89.0835 162.791 89.536 164.083 90.2596C164.441 90.4593 164.568 90.9117 164.368 91.2685C164.232 91.5113 163.98 91.6483 163.72 91.6483Z" fill="#617064"/>
<path opacity="0.1" d="M197.969 104.205C203.613 98.5615 203.613 89.4111 197.969 83.7673C192.326 78.1236 183.175 78.1236 177.531 83.7673C171.888 89.4111 171.888 98.5615 177.531 104.205C183.175 109.849 192.326 109.849 197.969 104.205Z" fill="#232323"/>
<g filter="url(#filter5_d_2573_748)">
<path d="M190.822 106.712C198.803 106.712 205.274 100.242 205.274 92.2602C205.274 84.2787 198.803 77.8083 190.822 77.8083C182.84 77.8083 176.37 84.2787 176.37 92.2602C176.37 100.242 182.84 106.712 190.822 106.712Z" fill="url(#paint4_linear_2573_748)"/>
</g>
<g filter="url(#filter6_d_2573_748)">
<path d="M188.095 99.2546L182.095 92.8717L184.195 90.6376L188.095 94.7866L197.995 84.2546L200.095 86.4887L188.095 99.2546Z" fill="#101D13"/>
</g>
<g filter="url(#filter7_d_2573_748)">
<path d="M148.345 12.1414L149.907 11.3204C150.261 11.1343 150.674 11.435 150.607 11.829L150.308 13.568C150.282 13.7245 150.333 13.884 150.447 13.995L151.711 15.2266C151.997 15.5054 151.839 15.9922 151.443 16.0495L149.697 16.3035C149.54 16.3265 149.404 16.4251 149.334 16.5675L148.553 18.1499C148.376 18.5085 147.865 18.5085 147.688 18.1499L146.907 16.5675C146.836 16.4251 146.701 16.3265 146.543 16.3035L144.797 16.0495C144.402 15.9922 144.244 15.506 144.53 15.2266L145.793 13.995C145.907 13.884 145.959 13.7245 145.932 13.568L145.634 11.829C145.566 11.435 145.98 11.1343 146.334 11.3204L147.896 12.1414C148.036 12.2153 148.204 12.2153 148.344 12.1414H148.345Z" fill="url(#paint5_linear_2573_748)"/>
</g>
<g filter="url(#filter8_d_2573_748)">
<path d="M99.056 148.132L100.618 147.311C100.972 147.125 101.385 147.426 101.318 147.82L101.019 149.559C100.993 149.715 101.044 149.875 101.158 149.986L102.422 151.217C102.708 151.496 102.55 151.983 102.154 152.04L100.408 152.294C100.251 152.317 100.115 152.416 100.045 152.558L99.2639 154.141C99.0867 154.499 98.5757 154.499 98.3985 154.141L97.6176 152.558C97.5473 152.416 97.4115 152.317 97.2544 152.294L95.5083 152.04C95.1125 151.983 94.9548 151.497 95.2407 151.217L96.5042 149.986C96.6176 149.875 96.6696 149.715 96.643 149.559L96.3447 147.82C96.2774 147.426 96.6909 147.125 97.0447 147.311L98.6065 148.132C98.747 148.206 98.9148 148.206 99.0554 148.132H99.056Z" fill="url(#paint6_linear_2573_748)"/>
</g>
<g filter="url(#filter9_d_2573_748)">
<path d="M26.0947 137.255C27.7516 137.255 29.0947 135.911 29.0947 134.255C29.0947 132.598 27.7516 131.255 26.0947 131.255C24.4379 131.255 23.0947 132.598 23.0947 134.255C23.0947 135.911 24.4379 137.255 26.0947 137.255Z" fill="url(#paint7_linear_2573_748)"/>
</g>
<g filter="url(#filter10_d_2573_748)">
<path d="M75.47 6.81704C76.5241 6.81704 77.3786 5.96257 77.3786 4.90852C77.3786 3.85447 76.5241 3 75.47 3C74.416 3 73.5615 3.85447 73.5615 4.90852C73.5615 5.96257 74.416 6.81704 75.47 6.81704Z" fill="url(#paint8_linear_2573_748)"/>
</g>
<g filter="url(#filter11_d_2573_748)">
<path d="M180.003 50.0717C181.057 50.0717 181.912 49.2172 181.912 48.1632C181.912 47.1091 181.057 46.2546 180.003 46.2546C178.949 46.2546 178.095 47.1091 178.095 48.1632C178.095 49.2172 178.949 50.0717 180.003 50.0717Z" fill="url(#paint9_linear_2573_748)"/>
</g>
<g filter="url(#filter12_d_2573_748)">
<path d="M174.003 132.072C175.057 132.072 175.912 131.217 175.912 130.163C175.912 129.109 175.057 128.255 174.003 128.255C172.949 128.255 172.095 129.109 172.095 130.163C172.095 131.217 172.949 132.072 174.003 132.072Z" fill="url(#paint10_linear_2573_748)"/>
</g>
<defs>
<filter id="filter0_d_2573_748" x="47.1836" y="30.9746" width="116.95" height="115.328" filterUnits="userSpaceOnUse" color-interpolation-filters="sRGB">
<feFlood flood-opacity="0" result="BackgroundImageFix"/>
<feColorMatrix in="SourceAlpha" type="matrix" values="0 0 0 0 0 0 0 0 0 0 0 0 0 0 0 0 0 0 127 0" result="hardAlpha"/>
<feOffset dy="3"/>
<feGaussianBlur stdDeviation="3"/>
<feColorMatrix type="matrix" values="0 0 0 0 0 0 0 0 0 0 0 0 0 0 0 0 0 0 0.08 0"/>
<feBlend mode="normal" in2="BackgroundImageFix" result="effect1_dropShadow_2573_748"/>
<feBlend mode="normal" in="SourceGraphic" in2="effect1_dropShadow_2573_748" result="shape"/>
</filter>
<filter id="filter1_d_2573_748" x="19.4541" y="19.9747" width="54.4912" height="48.6973" filterUnits="userSpaceOnUse" color-interpolation-filters="sRGB">
<feFlood flood-opacity="0" result="BackgroundImageFix"/>
<feColorMatrix in="SourceAlpha" type="matrix" values="0 0 0 0 0 0 0 0 0 0 0 0 0 0 0 0 0 0 127 0" result="hardAlpha"/>
<feOffset dy="3"/>
<feGaussianBlur stdDeviation="3"/>
<feColorMatrix type="matrix" values="0 0 0 0 0 0 0 0 0 0 0 0 0 0 0 0 0 0 0.08 0"/>
<feBlend mode="normal" in2="BackgroundImageFix" result="effect1_dropShadow_2573_748"/>
<feBlend mode="normal" in="SourceGraphic" in2="effect1_dropShadow_2573_748" result="shape"/>
</filter>
<filter id="filter2_d_2573_748" x="5.98438" y="19.9747" width="67.96" height="29.827" filterUnits="userSpaceOnUse" color-interpolation-filters="sRGB">
<feFlood flood-opacity="0" result="BackgroundImageFix"/>
<feColorMatrix in="SourceAlpha" type="matrix" values="0 0 0 0 0 0 0 0 0 0 0 0 0 0 0 0 0 0 127 0" result="hardAlpha"/>
<feOffset dy="3"/>
<feGaussianBlur stdDeviation="3"/>
<feColorMatrix type="matrix" values="0 0 0 0 0 0 0 0 0 0 0 0 0 0 0 0 0 0 0.08 0"/>
<feBlend mode="normal" in2="BackgroundImageFix" result="effect1_dropShadow_2573_748"/>
<feBlend mode="normal" in="SourceGraphic" in2="effect1_dropShadow_2573_748" result="shape"/>
</filter>
<filter id="filter3_d_2573_748" x="19.7646" y="40.2124" width="31.3779" height="28.4596" filterUnits="userSpaceOnUse" color-interpolation-filters="sRGB">
<feFlood flood-opacity="0" result="BackgroundImageFix"/>
<feColorMatrix in="SourceAlpha" type="matrix" values="0 0 0 0 0 0 0 0 0 0 0 0 0 0 0 0 0 0 127 0" result="hardAlpha"/>
<feOffset dy="3"/>
<feGaussianBlur stdDeviation="3"/>
<feColorMatrix type="matrix" values="0 0 0 0 0 0 0 0 0 0 0 0 0 0 0 0 0 0 0.08 0"/>
<feBlend mode="normal" in2="BackgroundImageFix" result="effect1_dropShadow_2573_748"/>
<feBlend mode="normal" in="SourceGraphic" in2="effect1_dropShadow_2573_748" result="shape"/>
</filter>
<filter id="filter4_d_2573_748" x="24.2822" y="19.9747" width="49.6631" height="43.7201" filterUnits="userSpaceOnUse" color-interpolation-filters="sRGB">
<feFlood flood-opacity="0" result="BackgroundImageFix"/>
<feColorMatrix in="SourceAlpha" type="matrix" values="0 0 0 0 0 0 0 0 0 0 0 0 0 0 0 0 0 0 127 0" result="hardAlpha"/>
<feOffset dy="3"/>
<feGaussianBlur stdDeviation="3"/>
<feColorMatrix type="matrix" values="0 0 0 0 0 0 0 0 0 0 0 0 0 0 0 0 0 0 0.08 0"/>
<feBlend mode="normal" in2="BackgroundImageFix" result="effect1_dropShadow_2573_748"/>
<feBlend mode="normal" in="SourceGraphic" in2="effect1_dropShadow_2573_748" result="shape"/>
</filter>
<filter id="filter5_d_2573_748" x="170.37" y="74.8083" width="40.9033" height="40.9037" filterUnits="userSpaceOnUse" color-interpolation-filters="sRGB">
<feFlood flood-opacity="0" result="BackgroundImageFix"/>
<feColorMatrix in="SourceAlpha" type="matrix" values="0 0 0 0 0 0 0 0 0 0 0 0 0 0 0 0 0 0 127 0" result="hardAlpha"/>
<feOffset dy="3"/>
<feGaussianBlur stdDeviation="3"/>
<feColorMatrix type="matrix" values="0 0 0 0 0 0 0 0 0 0 0 0 0 0 0 0 0 0 0.08 0"/>
<feBlend mode="normal" in2="BackgroundImageFix" result="effect1_dropShadow_2573_748"/>
<feBlend mode="normal" in="SourceGraphic" in2="effect1_dropShadow_2573_748" result="shape"/>
</filter>
<filter id="filter6_d_2573_748" x="176.095" y="81.2546" width="30" height="27" filterUnits="userSpaceOnUse" color-interpolation-filters="sRGB">
<feFlood flood-opacity="0" result="BackgroundImageFix"/>
<feColorMatrix in="SourceAlpha" type="matrix" values="0 0 0 0 0 0 0 0 0 0 0 0 0 0 0 0 0 0 127 0" result="hardAlpha"/>
<feOffset dy="3"/>
<feGaussianBlur stdDeviation="3"/>
<feColorMatrix type="matrix" values="0 0 0 0 0 0 0 0 0 0 0 0 0 0 0 0 0 0 0.08 0"/>
<feBlend mode="normal" in2="BackgroundImageFix" result="effect1_dropShadow_2573_748"/>
<feBlend mode="normal" in="SourceGraphic" in2="effect1_dropShadow_2573_748" result="shape"/>
</filter>
<filter id="filter7_d_2573_748" x="138.384" y="8.26392" width="19.4736" height="19.1549" filterUnits="userSpaceOnUse" color-interpolation-filters="sRGB">
<feFlood flood-opacity="0" result="BackgroundImageFix"/>
<feColorMatrix in="SourceAlpha" type="matrix" values="0 0 0 0 0 0 0 0 0 0 0 0 0 0 0 0 0 0 127 0" result="hardAlpha"/>
<feOffset dy="3"/>
<feGaussianBlur stdDeviation="3"/>
<feColorMatrix type="matrix" values="0 0 0 0 0 0 0 0 0 0 0 0 0 0 0 0 0 0 0.08 0"/>
<feBlend mode="normal" in2="BackgroundImageFix" result="effect1_dropShadow_2573_748"/>
<feBlend mode="normal" in="SourceGraphic" in2="effect1_dropShadow_2573_748" result="shape"/>
</filter>
<filter id="filter8_d_2573_748" x="89.0947" y="144.255" width="19.4736" height="19.1549" filterUnits="userSpaceOnUse" color-interpolation-filters="sRGB">
<feFlood flood-opacity="0" result="BackgroundImageFix"/>
<feColorMatrix in="SourceAlpha" type="matrix" values="0 0 0 0 0 0 0 0 0 0 0 0 0 0 0 0 0 0 127 0" result="hardAlpha"/>
<feOffset dy="3"/>
<feGaussianBlur stdDeviation="3"/>
<feColorMatrix type="matrix" values="0 0 0 0 0 0 0 0 0 0 0 0 0 0 0 0 0 0 0.08 0"/>
<feBlend mode="normal" in2="BackgroundImageFix" result="effect1_dropShadow_2573_748"/>
<feBlend mode="normal" in="SourceGraphic" in2="effect1_dropShadow_2573_748" result="shape"/>
</filter>
<filter id="filter9_d_2573_748" x="17.0947" y="128.255" width="18" height="18" filterUnits="userSpaceOnUse" color-interpolation-filters="sRGB">
<feFlood flood-opacity="0" result="BackgroundImageFix"/>
<feColorMatrix in="SourceAlpha" type="matrix" values="0 0 0 0 0 0 0 0 0 0 0 0 0 0 0 0 0 0 127 0" result="hardAlpha"/>
<feOffset dy="3"/>
<feGaussianBlur stdDeviation="3"/>
<feColorMatrix type="matrix" values="0 0 0 0 0 0 0 0 0 0 0 0 0 0 0 0 0 0 0.08 0"/>
<feBlend mode="normal" in2="BackgroundImageFix" result="effect1_dropShadow_2573_748"/>
<feBlend mode="normal" in="SourceGraphic" in2="effect1_dropShadow_2573_748" result="shape"/>
</filter>
<filter id="filter10_d_2573_748" x="67.5615" y="0" width="15.8174" height="15.817" filterUnits="userSpaceOnUse" color-interpolation-filters="sRGB">
<feFlood flood-opacity="0" result="BackgroundImageFix"/>
<feColorMatrix in="SourceAlpha" type="matrix" values="0 0 0 0 0 0 0 0 0 0 0 0 0 0 0 0 0 0 127 0" result="hardAlpha"/>
<feOffset dy="3"/>
<feGaussianBlur stdDeviation="3"/>
<feColorMatrix type="matrix" values="0 0 0 0 0 0 0 0 0 0 0 0 0 0 0 0 0 0 0.08 0"/>
<feBlend mode="normal" in2="BackgroundImageFix" result="effect1_dropShadow_2573_748"/>
<feBlend mode="normal" in="SourceGraphic" in2="effect1_dropShadow_2573_748" result="shape"/>
</filter>
<filter id="filter11_d_2573_748" x="172.095" y="43.2546" width="15.8174" height="15.817" filterUnits="userSpaceOnUse" color-interpolation-filters="sRGB">
<feFlood flood-opacity="0" result="BackgroundImageFix"/>
<feColorMatrix in="SourceAlpha" type="matrix" values="0 0 0 0 0 0 0 0 0 0 0 0 0 0 0 0 0 0 127 0" result="hardAlpha"/>
<feOffset dy="3"/>
<feGaussianBlur stdDeviation="3"/>
<feColorMatrix type="matrix" values="0 0 0 0 0 0 0 0 0 0 0 0 0 0 0 0 0 0 0.08 0"/>
<feBlend mode="normal" in2="BackgroundImageFix" result="effect1_dropShadow_2573_748"/>
<feBlend mode="normal" in="SourceGraphic" in2="effect1_dropShadow_2573_748" result="shape"/>
</filter>
<filter id="filter12_d_2573_748" x="166.095" y="125.255" width="15.8174" height="15.817" filterUnits="userSpaceOnUse" color-interpolation-filters="sRGB">
<feFlood flood-opacity="0" result="BackgroundImageFix"/>
<feColorMatrix in="SourceAlpha" type="matrix" values="0 0 0 0 0 0 0 0 0 0 0 0 0 0 0 0 0 0 127 0" result="hardAlpha"/>
<feOffset dy="3"/>
<feGaussianBlur stdDeviation="3"/>
<feColorMatrix type="matrix" values="0 0 0 0 0 0 0 0 0 0 0 0 0 0 0 0 0 0 0.08 0"/>
<feBlend mode="normal" in2="BackgroundImageFix" result="effect1_dropShadow_2573_748"/>
<feBlend mode="normal" in="SourceGraphic" in2="effect1_dropShadow_2573_748" result="shape"/>
</filter>
<linearGradient id="paint0_linear_2573_748" x1="25.4541" y1="41.3233" x2="67.9454" y2="41.3233" gradientUnits="userSpaceOnUse">
<stop stop-color="#E1FF01"/>
<stop offset="1" stop-color="#01F967"/>
</linearGradient>
<linearGradient id="paint1_linear_2573_748" x1="11.9844" y1="31.8882" x2="67.9446" y2="31.8882" gradientUnits="userSpaceOnUse">
<stop stop-color="#E1FF01"/>
<stop offset="1" stop-color="#01F967"/>
</linearGradient>
<linearGradient id="paint2_linear_2573_748" x1="25.7646" y1="51.4422" x2="45.1428" y2="51.4422" gradientUnits="userSpaceOnUse">
<stop stop-color="#E1FF01"/>
<stop offset="1" stop-color="#01F967"/>
</linearGradient>
<linearGradient id="paint3_linear_2573_748" x1="30.2822" y1="38.8348" x2="67.9453" y2="38.8348" gradientUnits="userSpaceOnUse">
<stop stop-color="#E1FF01"/>
<stop offset="1" stop-color="#01F967"/>
</linearGradient>
<linearGradient id="paint4_linear_2573_748" x1="176.37" y1="92.2602" x2="205.274" y2="92.2602" gradientUnits="userSpaceOnUse">
<stop stop-color="#E1FF01"/>
<stop offset="1" stop-color="#01F967"/>
</linearGradient>
<linearGradient id="paint5_linear_2573_748" x1="144.384" y1="14.8414" x2="151.857" y2="14.8414" gradientUnits="userSpaceOnUse">
<stop stop-color="#E1FF01"/>
<stop offset="1" stop-color="#01F967"/>
</linearGradient>
<linearGradient id="paint6_linear_2573_748" x1="95.0947" y1="150.832" x2="102.568" y2="150.832" gradientUnits="userSpaceOnUse">
<stop stop-color="#E1FF01"/>
<stop offset="1" stop-color="#01F967"/>
</linearGradient>
<linearGradient id="paint7_linear_2573_748" x1="23.0947" y1="134.255" x2="29.0947" y2="134.255" gradientUnits="userSpaceOnUse">
<stop stop-color="#E1FF01"/>
<stop offset="1" stop-color="#01F967"/>
</linearGradient>
<linearGradient id="paint8_linear_2573_748" x1="73.5615" y1="4.90852" x2="77.3786" y2="4.90852" gradientUnits="userSpaceOnUse">
<stop stop-color="#E1FF01"/>
<stop offset="1" stop-color="#01F967"/>
</linearGradient>
<linearGradient id="paint9_linear_2573_748" x1="178.095" y1="48.1632" x2="181.912" y2="48.1632" gradientUnits="userSpaceOnUse">
<stop stop-color="#E1FF01"/>
<stop offset="1" stop-color="#01F967"/>
</linearGradient>
<linearGradient id="paint10_linear_2573_748" x1="172.095" y1="130.163" x2="175.912" y2="130.163" gradientUnits="userSpaceOnUse">
<stop stop-color="#E1FF01"/>
<stop offset="1" stop-color="#01F967"/>
</linearGradient>
</defs>
</svg>
