<svg width="120" height="120" viewBox="0 0 120 120" fill="none" xmlns="http://www.w3.org/2000/svg">
<path d="M23.2869 49.2092C23.4478 48.6174 24.0583 48.2629 24.6646 48.4138C25.2631 48.5731 25.6204 49.1912 25.4607 49.79L18.1482 77.0522L18.1475 77.0559C17.5217 79.442 18.9504 81.9174 21.335 82.5776L21.3416 82.5791L79.3055 98.1006L79.3084 98.1013C81.6921 98.7295 84.161 97.3161 84.7876 94.9321L87.7159 84.0791C87.8789 83.4746 88.4964 83.1206 89.0928 83.2837L89.095 83.2844C89.6934 83.4459 90.0485 84.0629 89.8897 84.6628L86.9651 95.5005L86.9644 95.5049C86.1729 98.502 83.4414 100.5 80.448 100.5C79.8805 100.5 79.2993 100.429 78.7269 100.277L20.7425 84.7493C17.1662 83.7609 15.033 80.0513 15.9708 76.4758L23.2876 49.21L23.2869 49.2092Z" fill="white" fill-opacity="0.4"/>
<path fill-rule="evenodd" clip-rule="evenodd" d="M49.0953 30.7588C52.6568 30.9399 55.4988 33.8943 55.4988 37.5C55.4988 41.2219 52.4707 44.2498 48.7488 44.25C45.0269 44.2498 41.9988 41.2219 41.9988 37.5C41.9988 33.7781 45.0269 30.7502 48.7488 30.75L49.0953 30.7588ZM48.7488 33C46.2686 33.0002 44.2488 35.0196 44.2488 37.5L44.2547 37.7314C44.3757 40.1048 46.3463 41.9998 48.7488 42L48.9795 41.9941C51.2765 41.8773 53.1259 40.0283 53.243 37.7314L53.2488 37.5C53.2488 35.0197 51.2291 33.0002 48.7488 33Z" fill="white" fill-opacity="0.4"/>
<path fill-rule="evenodd" clip-rule="evenodd" d="M97.4988 19.5L97.846 19.5088C101.407 19.6902 104.249 22.6444 104.249 26.25V65.562L104.25 65.5781C104.251 65.6025 104.251 65.6309 104.25 65.6653L104.249 65.6785V71.25C104.249 74.972 101.221 77.9999 97.4988 78H37.4988C33.7769 77.9998 30.7488 74.9719 30.7488 71.25V26.25C30.7488 22.5281 33.7769 19.5002 37.4988 19.5H97.4988ZM80.6656 42.5625C80.3156 42.5475 79.9411 42.6493 79.6307 42.7874C79.29 42.9389 78.9231 43.1776 78.6492 43.5073L62.7374 62.5986C62.535 62.8413 62.2414 62.9872 61.9244 63.0007L61.9039 63.0022C61.6075 63.0231 61.3098 62.9077 61.0791 62.6748L61.077 62.6719L54.3519 55.9468L54.2559 55.856C53.2446 54.9516 51.6128 54.9824 50.6429 55.9468L33.3965 73.1924L33.7291 73.7021C34.5307 74.9304 35.9198 75.7499 37.4988 75.75H97.4988C99.9792 75.7499 101.999 73.7304 101.999 71.25V66.0396L82.6592 43.4773L82.657 43.4744L82.5604 43.3682C82.0639 42.8518 81.3955 42.5626 80.6656 42.5625ZM37.4988 21.75C35.0186 21.7502 32.9988 23.7696 32.9988 26.25V70.4092L49.0506 54.3574C50.8803 52.5282 54.1147 52.528 55.9441 54.3574L61.7969 60.2109L76.917 42.0674C77.7796 41.0345 79.0222 40.4072 80.3616 40.322L80.6304 40.3125H80.6656L80.9314 40.3198C82.2558 40.3917 83.495 40.9977 84.3665 42.0117L101.999 62.5825V26.25L101.993 26.0186C101.872 23.6452 99.9016 21.7501 97.4988 21.75H37.4988Z" fill="white" fill-opacity="0.4"/>
</svg>
