<svg width="24" height="24" viewBox="0 0 24 24" fill="none" xmlns="http://www.w3.org/2000/svg">
<g clip-path="url(#clip0_2611_2402)">
<g filter="url(#filter0_d_2611_2402)">
<path d="M1 3H5V15H1V3ZM23 14C23 15.1 22.1 16 21 16H14.69L15.64 20.57L15.67 20.89C15.67 21.3 15.5 21.68 15.23 21.95L14.17 23L7.59 16.41C7.22 16.05 7 15.55 7 15V5C7 3.9 7.9 3 9 3H18C18.83 3 19.54 3.5 19.84 4.22L22.86 11.27C22.95 11.5 23 11.74 23 12V14Z" fill="url(#paint0_linear_2611_2402)"/>
</g>
</g>
<defs>
<filter id="filter0_d_2611_2402" x="-5" y="0" width="34" height="32" filterUnits="userSpaceOnUse" color-interpolation-filters="sRGB">
<feFlood flood-opacity="0" result="BackgroundImageFix"/>
<feColorMatrix in="SourceAlpha" type="matrix" values="0 0 0 0 0 0 0 0 0 0 0 0 0 0 0 0 0 0 127 0" result="hardAlpha"/>
<feOffset dy="3"/>
<feGaussianBlur stdDeviation="3"/>
<feColorMatrix type="matrix" values="0 0 0 0 0 0 0 0 0 0 0 0 0 0 0 0 0 0 0.08 0"/>
<feBlend mode="normal" in2="BackgroundImageFix" result="effect1_dropShadow_2611_2402"/>
<feBlend mode="normal" in="SourceGraphic" in2="effect1_dropShadow_2611_2402" result="shape"/>
</filter>
<linearGradient id="paint0_linear_2611_2402" x1="1" y1="13" x2="23" y2="13" gradientUnits="userSpaceOnUse">
<stop stop-color="#E1FF01"/>
<stop offset="1" stop-color="#01F967"/>
</linearGradient>
<clipPath id="clip0_2611_2402">
<rect width="24" height="24" fill="white" transform="matrix(1 0 0 -1 0 24)"/>
</clipPath>
</defs>
</svg>
