<svg width="136" height="42" viewBox="0 0 136 42" fill="none" xmlns="http://www.w3.org/2000/svg">
<g filter="url(#filter0_d_2588_318)">
<path d="M28.9015 30.7263C26.6035 32.1583 23.9013 33 21 33C18.6974 33 16.5231 32.4632 14.5714 31.5321V22.6657L28.9015 30.7263Z" fill="url(#paint0_linear_2588_318)"/>
<path d="M13.5 30.9705C9.37359 28.5749 6.4904 24.278 6.06487 19.281L13.5 15.0988V30.9705Z" fill="url(#paint1_linear_2588_318)"/>
<path d="M35.9956 17.9137C35.9958 17.9428 36 17.9709 36 18C36 22.9415 33.5876 27.3192 29.8902 30.0537L22.1518 25.7008L35.9956 17.9137Z" fill="url(#paint2_linear_2588_318)"/>
<path d="M28.5 5.02953C32.6264 7.42507 35.5096 11.722 35.9351 16.719L28.5 20.9012V5.02953Z" fill="url(#paint3_linear_2588_318)"/>
<path d="M19.8483 10.299L6.00438 18.0863C6.00419 18.0572 6 18.0291 6 18C6 13.0584 8.41235 8.68072 12.1099 5.94623L19.8483 10.299Z" fill="url(#paint4_linear_2588_318)"/>
<path d="M21 3C23.3026 3 25.4769 3.53683 27.4286 4.46792V13.3342L13.0987 5.27365C15.3966 3.8417 18.0988 3 21 3Z" fill="url(#paint5_linear_2588_318)"/>
</g>
<g filter="url(#filter1_d_2588_318)">
<path d="M21.1333 12.6938L21.6309 14.0756C22.1836 15.6091 23.3913 16.8167 24.9249 17.3694L26.3067 17.867C26.4312 17.9122 26.4312 18.0888 26.3067 18.1334L24.9249 18.631C23.3913 19.1837 22.1836 20.3913 21.6309 21.9248L21.1333 23.3066C21.0881 23.4311 20.9115 23.4311 20.8669 23.3066L20.3693 21.9248C19.8166 20.3913 18.6089 19.1837 17.0753 18.631L15.6935 18.1334C15.569 18.0882 15.569 17.9116 15.6935 17.867L17.0753 17.3694C18.6089 16.8167 19.8166 15.6091 20.3693 14.0756L20.8669 12.6938C20.9115 12.5687 21.0881 12.5687 21.1333 12.6938Z" fill="url(#paint6_linear_2588_318)"/>
</g>
<path fill-rule="evenodd" clip-rule="evenodd" d="M66.3149 14.0514C67.047 14.0514 67.7287 14.1692 68.3596 14.405C68.9953 14.636 69.5491 14.9852 70.0211 15.452C70.4978 15.9187 70.8687 16.5057 71.1336 17.2131C71.3985 17.9156 71.5306 18.7386 71.5306 19.6817V20.5264H63.9742V20.5338C63.9742 21.0823 64.0753 21.5565 64.2776 21.9559C64.4847 22.3553 64.7763 22.663 65.1519 22.8796C65.5276 23.0961 65.9731 23.2047 66.4884 23.2047C66.8303 23.2047 67.1433 23.1565 67.4275 23.0602C67.7116 22.964 67.9549 22.8194 68.1572 22.6269C68.3594 22.4344 68.5135 22.1987 68.6194 21.9197L71.4659 22.1073C71.3214 22.7906 71.0252 23.3875 70.5773 23.8976C70.1343 24.4029 69.5611 24.7974 68.858 25.0813C68.1597 25.3604 67.3529 25.5 66.4379 25.5C65.2965 25.5 64.314 25.269 63.4904 24.807C62.6717 24.3403 62.0408 23.6809 61.5977 22.8291C61.1546 21.9726 60.9331 20.9597 60.9331 19.7904C60.9331 18.6499 61.1546 17.6488 61.5977 16.7874C62.0407 15.9261 62.6642 15.2545 63.4685 14.7733C64.2776 14.292 65.2265 14.0514 66.3149 14.0514ZM66.3654 16.3472C65.8983 16.3472 65.4842 16.4553 65.123 16.6719C64.7666 16.8836 64.4872 17.1699 64.2849 17.5308C64.0983 17.8594 63.9968 18.2228 63.9783 18.6209H68.6341C68.6341 18.1782 68.5376 17.7858 68.3449 17.4442C68.1523 17.1025 67.885 16.8355 67.5431 16.643C67.206 16.4457 66.8133 16.3472 66.3654 16.3472Z" fill="white"/>
<path fill-rule="evenodd" clip-rule="evenodd" d="M98.9477 14.0514C100.07 14.0514 101.038 14.2921 101.852 14.7733C102.67 15.2497 103.301 15.9187 103.744 16.7801C104.187 17.6367 104.409 18.6377 104.409 19.783C104.409 20.9187 104.187 21.9173 103.744 22.7786C103.301 23.6352 102.67 24.3043 101.852 24.7855C101.038 25.2618 100.07 25.5 98.9477 25.5C97.8256 25.5 96.8552 25.2618 96.0365 24.7855C95.2226 24.3042 94.5937 23.6352 94.1506 22.7786C93.7076 21.9173 93.4861 20.9187 93.4861 19.783C93.4861 18.6378 93.7076 17.6367 94.1506 16.7801C94.5937 15.9187 95.2226 15.2497 96.0365 14.7733C96.8552 14.2921 97.8256 14.0514 98.9477 14.0514ZM98.962 16.3976C98.4467 16.3977 98.0133 16.5444 97.6617 16.8379C97.315 17.1314 97.0523 17.531 96.8741 18.0362C96.7008 18.5415 96.6143 19.1167 96.6143 19.7615C96.6143 20.4062 96.7008 20.9811 96.8741 21.4863C97.0523 21.9916 97.315 22.3911 97.6617 22.6847C98.0133 22.9734 98.4467 23.118 98.962 23.118C99.4725 23.118 99.8987 22.9734 100.241 22.6847C100.583 22.3911 100.841 21.9916 101.014 21.4863C101.192 20.9811 101.281 20.4062 101.281 19.7615C101.281 19.1167 101.192 18.5415 101.014 18.0362C100.841 17.5309 100.583 17.1314 100.241 16.8379C99.8987 16.5444 99.4725 16.3976 98.962 16.3976Z" fill="white"/>
<path fill-rule="evenodd" clip-rule="evenodd" d="M79.2593 14.0514C79.8757 14.0514 80.4657 14.1236 81.0291 14.2679C81.5974 14.4123 82.1008 14.6361 82.5391 14.9393C82.9822 15.2425 83.3312 15.6323 83.5865 16.1087C83.8417 16.5803 83.9693 17.1458 83.9693 17.8051V25.2835H81.0507V23.7458H80.9644C80.7862 24.0923 80.5475 24.3979 80.2489 24.6626C79.9503 24.9224 79.5916 25.127 79.1726 25.2762C78.7536 25.4206 78.2695 25.4927 77.7204 25.4927C77.0125 25.4927 76.3815 25.3703 75.8277 25.1248C75.2738 24.8746 74.8358 24.5061 74.5131 24.0201C74.1953 23.5292 74.0363 22.9181 74.0363 22.1866C74.0363 21.5707 74.1496 21.0533 74.3759 20.6347C74.6022 20.2161 74.9103 19.8794 75.3003 19.6243C75.6904 19.3693 76.1335 19.1765 76.6295 19.0465C77.1304 18.9166 77.6556 18.8252 78.2046 18.7723C78.8499 18.7049 79.3702 18.6425 79.7651 18.5847C80.1599 18.5222 80.4466 18.4308 80.6247 18.3105C80.8029 18.1902 80.8919 18.012 80.8919 17.7762V17.7331C80.8919 17.276 80.7475 16.9221 80.4586 16.6719C80.1744 16.4216 79.7696 16.2963 79.2447 16.2963C78.6909 16.2963 78.2503 16.4192 77.9228 16.6646C77.5954 16.9051 77.3784 17.2083 77.2725 17.574L74.4264 17.3433C74.5709 16.6696 74.855 16.0873 75.2787 15.5964C75.7025 15.1008 76.2492 14.7206 76.9186 14.4559C77.5929 14.1864 78.3732 14.0514 79.2593 14.0514ZM80.9135 20.144C80.8172 20.2065 80.6849 20.2644 80.5164 20.3173C80.3527 20.3654 80.1672 20.4111 79.9602 20.4544C79.7531 20.4929 79.5458 20.529 79.3387 20.5627C79.1316 20.5915 78.9437 20.6179 78.7751 20.642C78.414 20.6949 78.0984 20.7792 77.8288 20.8947C77.5591 21.0102 77.3497 21.1666 77.2004 21.3639C77.0511 21.5563 76.9764 21.797 76.9764 22.0857C76.9764 22.5043 77.1283 22.8242 77.4317 23.0456C77.7399 23.2621 78.1298 23.3707 78.6017 23.3707C79.0543 23.3707 79.4542 23.2814 79.8009 23.1034C80.1477 22.9205 80.42 22.6752 80.6174 22.3673C80.8149 22.0593 80.9135 21.7101 80.9135 21.3203V20.144Z" fill="white"/>
<path fill-rule="evenodd" clip-rule="evenodd" d="M53.0871 10.5C54.2044 10.5 55.158 10.6996 55.9479 11.099C56.7425 11.4936 57.347 12.0544 57.7612 12.7811C58.1802 13.5029 58.3896 14.3523 58.3896 15.3291C58.3896 16.3108 58.1777 17.1555 57.7539 17.8629C57.3301 18.5654 56.7159 19.1045 55.9116 19.4799C55.8676 19.5006 55.8227 19.5202 55.7776 19.5397L58.9169 25.2835H55.4641L52.6616 20.0426H50.3779V25.2835H47.25V10.5H53.0871ZM50.3779 17.5308H52.5019C53.0991 17.5308 53.5954 17.4491 53.9903 17.2855C54.3852 17.1219 54.679 16.8762 54.8716 16.549C55.069 16.2218 55.1676 15.8151 55.1676 15.3291C55.1676 14.8383 55.069 14.4245 54.8716 14.0876C54.6789 13.7508 54.3828 13.4955 53.983 13.3223C53.5881 13.1442 53.0896 13.0554 52.4877 13.0553H50.3779V17.5308Z" fill="white"/>
<path d="M90.4518 25.2835H87.374V10.5H90.4518V25.2835Z" fill="white"/>
<path d="M113.192 14.0372C113.346 14.0372 113.513 14.0468 113.691 14.0661C113.869 14.0853 114.025 14.1117 114.16 14.1454V16.8741C114.016 16.8308 113.816 16.7922 113.561 16.7585C113.306 16.7249 113.072 16.7081 112.86 16.7081C112.407 16.7081 112.003 16.8066 111.646 17.0039C111.295 17.1964 111.016 17.466 110.808 17.8124C110.606 18.1589 110.505 18.5584 110.505 19.0107V25.2835H107.427V14.1959H110.411V16.1303H110.527C110.729 15.4422 111.068 14.9223 111.545 14.571C112.022 14.215 112.571 14.0372 113.192 14.0372Z" fill="white"/>
<path fill-rule="evenodd" clip-rule="evenodd" d="M129.449 25.2835H126.097L125.001 21.9124H119.659L118.562 25.2835H115.21L120.318 10.5H124.349L129.449 25.2835ZM120.454 19.4726H124.209L122.391 13.8781H122.275L120.454 19.4726Z" fill="white"/>
<path d="M135.375 25.2835H132.247V10.5H135.375V25.2835Z" fill="white"/>
<defs>
<filter id="filter0_d_2588_318" x="0" y="0" width="42" height="42" filterUnits="userSpaceOnUse" color-interpolation-filters="sRGB">
<feFlood flood-opacity="0" result="BackgroundImageFix"/>
<feColorMatrix in="SourceAlpha" type="matrix" values="0 0 0 0 0 0 0 0 0 0 0 0 0 0 0 0 0 0 127 0" result="hardAlpha"/>
<feOffset dy="3"/>
<feGaussianBlur stdDeviation="3"/>
<feColorMatrix type="matrix" values="0 0 0 0 0 0 0 0 0 0 0 0 0 0 0 0 0 0 0.08 0"/>
<feBlend mode="normal" in2="BackgroundImageFix" result="effect1_dropShadow_2588_318"/>
<feBlend mode="normal" in="SourceGraphic" in2="effect1_dropShadow_2588_318" result="shape"/>
</filter>
<filter id="filter1_d_2588_318" x="9.6001" y="9.59998" width="22.7998" height="22.8" filterUnits="userSpaceOnUse" color-interpolation-filters="sRGB">
<feFlood flood-opacity="0" result="BackgroundImageFix"/>
<feColorMatrix in="SourceAlpha" type="matrix" values="0 0 0 0 0 0 0 0 0 0 0 0 0 0 0 0 0 0 127 0" result="hardAlpha"/>
<feOffset dy="3"/>
<feGaussianBlur stdDeviation="3"/>
<feColorMatrix type="matrix" values="0 0 0 0 0 0 0 0 0 0 0 0 0 0 0 0 0 0 0.08 0"/>
<feBlend mode="normal" in2="BackgroundImageFix" result="effect1_dropShadow_2588_318"/>
<feBlend mode="normal" in="SourceGraphic" in2="effect1_dropShadow_2588_318" result="shape"/>
</filter>
<linearGradient id="paint0_linear_2588_318" x1="6" y1="18" x2="36" y2="18" gradientUnits="userSpaceOnUse">
<stop stop-color="#E1FF01"/>
<stop offset="1" stop-color="#01F967"/>
</linearGradient>
<linearGradient id="paint1_linear_2588_318" x1="6" y1="18" x2="36" y2="18" gradientUnits="userSpaceOnUse">
<stop stop-color="#E1FF01"/>
<stop offset="1" stop-color="#01F967"/>
</linearGradient>
<linearGradient id="paint2_linear_2588_318" x1="6" y1="18" x2="36" y2="18" gradientUnits="userSpaceOnUse">
<stop stop-color="#E1FF01"/>
<stop offset="1" stop-color="#01F967"/>
</linearGradient>
<linearGradient id="paint3_linear_2588_318" x1="6" y1="18" x2="36" y2="18" gradientUnits="userSpaceOnUse">
<stop stop-color="#E1FF01"/>
<stop offset="1" stop-color="#01F967"/>
</linearGradient>
<linearGradient id="paint4_linear_2588_318" x1="6" y1="18" x2="36" y2="18" gradientUnits="userSpaceOnUse">
<stop stop-color="#E1FF01"/>
<stop offset="1" stop-color="#01F967"/>
</linearGradient>
<linearGradient id="paint5_linear_2588_318" x1="6" y1="18" x2="36" y2="18" gradientUnits="userSpaceOnUse">
<stop stop-color="#E1FF01"/>
<stop offset="1" stop-color="#01F967"/>
</linearGradient>
<linearGradient id="paint6_linear_2588_318" x1="15.6001" y1="18" x2="26.4001" y2="18" gradientUnits="userSpaceOnUse">
<stop stop-color="#E1FF01"/>
<stop offset="1" stop-color="#01F967"/>
</linearGradient>
</defs>
</svg>
