<svg width="44" height="44" viewBox="0 0 44 44" fill="none" xmlns="http://www.w3.org/2000/svg">
<g clip-path="url(#clip0_2617_2413)" filter="url(#filter0_d_2617_2413)">
<rect width="32" height="32" transform="translate(6 3)" fill="url(#paint0_linear_2617_2413)"/>
<g filter="url(#filter1_d_2617_2413)">
<path d="M27.2676 27.4844C25.7357 28.439 23.9342 29 22 29C20.465 29 19.0153 28.6422 17.7142 28.0215V22.1107L27.2676 27.4844Z" fill="#101D13"/>
<path d="M17 27.6471C14.2491 26.0501 12.3267 23.1854 12.043 19.8542L17 17.0658V27.6471Z" fill="#101D13"/>
<path d="M32 19C32 22.2942 30.392 25.2128 27.9271 27.0358L22.7676 24.1341L31.9974 18.9427C31.9975 18.962 32 18.9807 32 19Z" fill="#101D13"/>
<path d="M21.9115 15.4622C21.9414 15.3793 22.0582 15.3793 22.0885 15.4622L22.4206 16.3835C22.789 17.4058 23.5942 18.211 24.6165 18.5794L25.5378 18.9115C25.6207 18.9417 25.6208 19.0595 25.5378 19.0892L24.6165 19.4206C23.5941 19.789 22.7891 20.5942 22.4206 21.6165L22.0885 22.5378C22.0583 22.6206 21.9413 22.6206 21.9115 22.5378L21.5794 21.6165C21.2109 20.5942 20.4059 19.789 19.3835 19.4206L18.4622 19.0892C18.3792 19.059 18.3793 18.9412 18.4622 18.9115L19.3835 18.5794C20.4058 18.211 21.211 17.4058 21.5794 16.3835L21.9115 15.4622Z" fill="#101D13"/>
<path d="M27 10.3529C29.7509 11.9499 31.6733 14.8146 31.957 18.1458L27 20.9342V10.3529Z" fill="#101D13"/>
<path d="M21.2324 13.8659L12.0026 19.0573C12.0025 19.038 12 19.0193 12 19C12 15.7056 13.6085 12.7872 16.0736 10.9642L21.2324 13.8659Z" fill="#101D13"/>
<path d="M22 9C23.535 9 24.9847 9.35779 26.2858 9.97852V15.8893L16.7324 10.5156C18.2644 9.56101 20.0659 9 22 9Z" fill="#101D13"/>
</g>
</g>
<defs>
<filter id="filter0_d_2617_2413" x="0" y="0" width="44" height="44" filterUnits="userSpaceOnUse" color-interpolation-filters="sRGB">
<feFlood flood-opacity="0" result="BackgroundImageFix"/>
<feColorMatrix in="SourceAlpha" type="matrix" values="0 0 0 0 0 0 0 0 0 0 0 0 0 0 0 0 0 0 127 0" result="hardAlpha"/>
<feOffset dy="3"/>
<feGaussianBlur stdDeviation="3"/>
<feColorMatrix type="matrix" values="0 0 0 0 0 0 0 0 0 0 0 0 0 0 0 0 0 0 0.08 0"/>
<feBlend mode="normal" in2="BackgroundImageFix" result="effect1_dropShadow_2617_2413"/>
<feBlend mode="normal" in="SourceGraphic" in2="effect1_dropShadow_2617_2413" result="shape"/>
</filter>
<filter id="filter1_d_2617_2413" x="6" y="6" width="32" height="32" filterUnits="userSpaceOnUse" color-interpolation-filters="sRGB">
<feFlood flood-opacity="0" result="BackgroundImageFix"/>
<feColorMatrix in="SourceAlpha" type="matrix" values="0 0 0 0 0 0 0 0 0 0 0 0 0 0 0 0 0 0 127 0" result="hardAlpha"/>
<feOffset dy="3"/>
<feGaussianBlur stdDeviation="3"/>
<feColorMatrix type="matrix" values="0 0 0 0 0 0 0 0 0 0 0 0 0 0 0 0 0 0 0.08 0"/>
<feBlend mode="normal" in2="BackgroundImageFix" result="effect1_dropShadow_2617_2413"/>
<feBlend mode="normal" in="SourceGraphic" in2="effect1_dropShadow_2617_2413" result="shape"/>
</filter>
<linearGradient id="paint0_linear_2617_2413" x1="0" y1="16" x2="32" y2="16" gradientUnits="userSpaceOnUse">
<stop stop-color="#E1FF01"/>
<stop offset="1" stop-color="#01F967"/>
</linearGradient>
<clipPath id="clip0_2617_2413">
<rect width="32" height="32" fill="white" transform="translate(6 3)"/>
</clipPath>
</defs>
</svg>
