<svg width="32" height="32" viewBox="0 0 32 32" fill="none" xmlns="http://www.w3.org/2000/svg">
<path d="M24.4281 29.575C21.9771 31.1024 19.0946 32 16 32C13.5439 32 11.2245 31.4275 9.14271 30.4344V20.9771L24.4281 29.575Z" fill="url(#paint0_linear_2617_2416)"/>
<path d="M8 29.8354C3.59855 27.2802 0.522704 22.6967 0.06875 17.3667L8 12.9052V29.8354Z" fill="url(#paint1_linear_2617_2416)"/>
<path d="M32 16C32 21.2708 29.4271 25.9405 25.4833 28.8573L17.2281 24.2146L31.9958 15.9083C31.9961 15.9393 32 15.9691 32 16Z" fill="url(#paint2_linear_2617_2416)"/>
<path d="M15.8583 10.3396C15.9062 10.2069 16.0932 10.2069 16.1417 10.3396L16.6729 11.8135C17.2625 13.4493 18.5506 14.7375 20.1865 15.3271L21.6604 15.8583C21.7931 15.9067 21.7932 16.0951 21.6604 16.1427L20.1865 16.6729C18.5506 17.2625 17.2625 18.5507 16.6729 20.1865L16.1417 21.6604C16.0933 21.793 15.906 21.793 15.8583 21.6604L15.3271 20.1865C14.7375 18.5507 13.4494 17.2625 11.8135 16.6729L10.3396 16.1427C10.2068 16.0945 10.2068 15.906 10.3396 15.8583L11.8135 15.3271C13.4493 14.7375 14.7375 13.4493 15.3271 11.8135L15.8583 10.3396Z" fill="url(#paint3_linear_2617_2416)"/>
<path d="M24 2.16458C28.4015 4.7198 31.4773 9.30334 31.9313 14.6333L24 19.0948V2.16458Z" fill="url(#paint4_linear_2617_2416)"/>
<path d="M14.7719 7.78542L0.00416667 16.0917C0.00392708 16.0607 4.85878e-08 16.0309 0 16C0 10.729 2.57365 6.05949 6.51771 3.14271L14.7719 7.78542Z" fill="url(#paint5_linear_2617_2416)"/>
<path d="M16 0C18.4561 7.90555e-08 20.7755 0.572461 22.8573 1.56563V11.0229L7.57188 2.425C10.023 0.897613 12.9054 0 16 0Z" fill="url(#paint6_linear_2617_2416)"/>
<defs>
<linearGradient id="paint0_linear_2617_2416" x1="0" y1="16" x2="32" y2="16" gradientUnits="userSpaceOnUse">
<stop stop-color="#E1FF01"/>
<stop offset="1" stop-color="#01F967"/>
</linearGradient>
<linearGradient id="paint1_linear_2617_2416" x1="0" y1="16" x2="32" y2="16" gradientUnits="userSpaceOnUse">
<stop stop-color="#E1FF01"/>
<stop offset="1" stop-color="#01F967"/>
</linearGradient>
<linearGradient id="paint2_linear_2617_2416" x1="0" y1="16" x2="32" y2="16" gradientUnits="userSpaceOnUse">
<stop stop-color="#E1FF01"/>
<stop offset="1" stop-color="#01F967"/>
</linearGradient>
<linearGradient id="paint3_linear_2617_2416" x1="0" y1="16" x2="32" y2="16" gradientUnits="userSpaceOnUse">
<stop stop-color="#E1FF01"/>
<stop offset="1" stop-color="#01F967"/>
</linearGradient>
<linearGradient id="paint4_linear_2617_2416" x1="0" y1="16" x2="32" y2="16" gradientUnits="userSpaceOnUse">
<stop stop-color="#E1FF01"/>
<stop offset="1" stop-color="#01F967"/>
</linearGradient>
<linearGradient id="paint5_linear_2617_2416" x1="0" y1="16" x2="32" y2="16" gradientUnits="userSpaceOnUse">
<stop stop-color="#E1FF01"/>
<stop offset="1" stop-color="#01F967"/>
</linearGradient>
<linearGradient id="paint6_linear_2617_2416" x1="0" y1="16" x2="32" y2="16" gradientUnits="userSpaceOnUse">
<stop stop-color="#E1FF01"/>
<stop offset="1" stop-color="#01F967"/>
</linearGradient>
</defs>
</svg>
