<svg width="24" height="24" viewBox="0 0 24 24" fill="none" xmlns="http://www.w3.org/2000/svg">
<g clip-path="url(#clip0_2606_2320)">
<g filter="url(#filter0_d_2606_2320)">
<path d="M1 21H5V9H1V21ZM23 10C23 8.9 22.1 8 21 8H14.69L15.64 3.43L15.67 3.11C15.67 2.7 15.5 2.32 15.23 2.05L14.17 1L7.59 7.59C7.22 7.95 7 8.45 7 9V19C7 20.1 7.9 21 9 21H18C18.83 21 19.54 20.5 19.84 19.78L22.86 12.73C22.95 12.5 23 12.26 23 12V10Z" fill="url(#paint0_linear_2606_2320)"/>
</g>
</g>
<defs>
<filter id="filter0_d_2606_2320" x="-5" y="-2" width="34" height="32" filterUnits="userSpaceOnUse" color-interpolation-filters="sRGB">
<feFlood flood-opacity="0" result="BackgroundImageFix"/>
<feColorMatrix in="SourceAlpha" type="matrix" values="0 0 0 0 0 0 0 0 0 0 0 0 0 0 0 0 0 0 127 0" result="hardAlpha"/>
<feOffset dy="3"/>
<feGaussianBlur stdDeviation="3"/>
<feColorMatrix type="matrix" values="0 0 0 0 0 0 0 0 0 0 0 0 0 0 0 0 0 0 0.08 0"/>
<feBlend mode="normal" in2="BackgroundImageFix" result="effect1_dropShadow_2606_2320"/>
<feBlend mode="normal" in="SourceGraphic" in2="effect1_dropShadow_2606_2320" result="shape"/>
</filter>
<linearGradient id="paint0_linear_2606_2320" x1="1" y1="11" x2="23" y2="11" gradientUnits="userSpaceOnUse">
<stop stop-color="#E1FF01"/>
<stop offset="1" stop-color="#01F967"/>
</linearGradient>
<clipPath id="clip0_2606_2320">
<rect width="24" height="24" fill="white"/>
</clipPath>
</defs>
</svg>
